<svg xmlns="http://www.w3.org/2000/svg" xmlns:xlink="http://www.w3.org/1999/xlink" width="15" height="17" viewBox="0 0 15 17"><defs><path id="a" d="M.14.36h14.68v16.06H.14z"/></defs><clipPath id="b"><use overflow="visible" xlink:href="#a"/></clipPath><path d="M6.836 7.524a.567.567 0 0 0-.801-.801L3.037 9.721a2.644 2.644 0 0 0-.788 1.893c0 .718.277 1.381.788 1.893a2.668 2.668 0 0 0 3.785 0l6.77-6.769a3.715 3.715 0 0 0 1.091-2.639c0-.995-.386-1.934-1.091-2.639a3.736 3.736 0 0 0-5.291 0L1.545 8.215a4.763 4.763 0 0 0-1.409 3.398c0 1.285.497 2.501 1.409 3.398a4.763 4.763 0 0 0 3.398 1.409c1.285 0 2.5-.497 3.398-1.409l2.998-2.998a.567.567 0 0 0-.801-.801L7.54 14.21c-.691.691-1.616 1.078-2.597 1.078s-1.906-.387-2.597-1.078c-.691-.691-1.078-1.616-1.078-2.597s.387-1.906 1.078-2.597l6.755-6.755c.497-.497 1.146-.759 1.837-.759s1.354.276 1.837.759c.497.497.76 1.147.76 1.837s-.277 1.354-.76 1.837l-6.769 6.769a1.56 1.56 0 0 1-2.183 0 1.537 1.537 0 0 1 0-2.182l3.013-2.998zm0 0" clip-path="url(#b)"/></svg>