<svg xmlns="http://www.w3.org/2000/svg" width="31" height="28" viewBox="0 0 31 28"><path d="M30.437 4.361c-.125-.125-.249-.249-.499-.249H6.244L5.62.87c0-.249-.374-.499-.624-.499H1.255C.881.371.631.62.631.995s.249.624.624.624h3.242L7.49 16.833c.374 1.995 2.245 3.492 4.24 3.492h14.341c.374 0 .624-.249.624-.624 0-.374-.249-.624-.624-.624H11.855c-.998 0-1.995-.499-2.494-1.372l18.207-2.494c.249 0 .499-.249.499-.499l2.494-9.976s0-.25-.124-.375zm-3.492 9.728L8.738 16.458 6.493 5.234h22.572l-2.12 8.855zm-15.713 7.482a3.088 3.088 0 0 0-3.118 3.118c0 1.746 1.372 3.118 3.118 3.118s3.118-1.372 3.118-3.118a3.088 3.088 0 0 0-3.118-3.118zm0 4.988c-.998 0-1.871-.873-1.871-1.871s.873-1.871 1.871-1.871 1.871.873 1.871 1.871c-.001.998-.873 1.871-1.871 1.871zm12.47-4.988a3.088 3.088 0 0 0-3.118 3.118 3.088 3.088 0 0 0 3.118 3.118 3.088 3.088 0 0 0 3.118-3.118 3.088 3.088 0 0 0-3.118-3.118zm0 4.988c-.998 0-1.871-.873-1.871-1.871s.873-1.871 1.871-1.871 1.871.873 1.871 1.871-.873 1.871-1.871 1.871z"/></svg>