<svg xmlns="http://www.w3.org/2000/svg" width="29" height="27" viewBox="0 0 29 27"><path d="M25.177 6.138h-7.839V3.623c0-1.581-.856-3.266-3.266-3.266H4.045C2 .357.779 1.578.779 3.623v19.754c0 1.581.862 3.266 3.266 3.266h10.06c2.41 0 3.266-1.692 3.266-3.266V19.98l.542.653a.653.653 0 0 0 1.156-.425v-2.443h6.121a2.88 2.88 0 0 0 3.024-3.071V9.202a2.88 2.88 0 0 0-3.037-3.064zM2.085 3.623c0-.483 0-1.96 1.96-1.96h10.06a1.744 1.744 0 0 1 1.96 1.96v.732H2.085v-.732zm13.966 19.754a1.744 1.744 0 0 1-1.96 1.96H4.045a1.744 1.744 0 0 1-1.96-1.96v-1.195h13.966v1.195zm0-2.502H2.085V5.661h13.966v.503h-1.502a2.881 2.881 0 0 0-3.07 3.063v5.494a2.88 2.88 0 0 0 3.07 3.064h.954l.555.653-.007 2.437zm10.857-6.18a1.58 1.58 0 0 1-1.764 1.757h-6.728a.653.653 0 0 0-.653.653v1.306l-1.444-1.725a.655.655 0 0 0-.503-.235h-1.274a1.58 1.58 0 0 1-1.764-1.758V9.202a1.58 1.58 0 0 1 1.764-1.757h10.635a1.58 1.58 0 0 1 1.731 1.758v5.492z"/><path d="M7.383 24.318h3.345a.653.653 0 1 0 0-1.306H7.383a.653.653 0 1 0 0 1.306z"/></svg>