<svg xmlns="http://www.w3.org/2000/svg" width="16" height="12" viewBox="0 0 16 12"><path fill-rule="evenodd" d="M8 3.333a2.667 2.667 0 1 0 0 5.334 2.667 2.667 0 0 0 0-5.334zm0 4A1.335 1.335 0 0 1 6.666 6c0-.735.598-1.333 1.333-1.333S9.332 5.265 9.332 6A1.333 1.333 0 0 1 8 7.333zM8 0C2.666 0 0 6.028 0 6.028S2.667 12 8 12s8-6 8-6-2.667-6-8-6zm0 10.666c-3.525 0-5.75-3.313-6.499-4.642C2.25 4.683 4.475 1.333 8 1.333c3.525 0 5.75 3.333 6.499 4.667-.75 1.336-2.975 4.666-6.499 4.666z" clip-rule="evenodd"/></svg>