<svg xmlns="http://www.w3.org/2000/svg" width="44" height="43" viewBox="0 0 44 43"><defs><style>.cls-1{fill-rule:evenodd}</style></defs><path id="Forma_1" d="M43.7 4.249L39.776.38a1.036 1.036 0 0 0-1.45 0 1 1 0 0 0 0 1.429l2.083 2.052h-9.827a1.01 1.01 0 1 0 0 2.021H40.6l-2.173 2.137a1 1 0 0 0 0 1.429 1.036 1.036 0 0 0 1.45 0l3.823-3.77a1 1 0 0 0 0-1.429zM40.134 16.2a6.936 6.936 0 0 0-3.094-1.083 5.69 5.69 0 0 0-4.65-2.312 6.984 6.984 0 0 0-1.256.116 5.74 5.74 0 0 0-4.382-1.944h-.1l-.008-6.2A4.674 4.674 0 0 0 25.082 1.2a5.1 5.1 0 0 0-6.777.186 4.654 4.654 0 0 0-1.366 3.4l.011 8.954.007 5.683a5.156 5.156 0 0 0-2.609 3.157c-.64 2.145-.13 4.908 1.56 8.446A40.993 40.993 0 0 0 19 36.325l.283 3.716A3.241 3.241 0 0 0 22.516 43l13.441-.016a3.24 3.24 0 0 0 3.215-2.784l.522-3.917a20.741 20.741 0 0 0 3.459-15.1 7.112 7.112 0 0 0-3.019-4.983zm-2.265 19.14a1.174 1.174 0 0 0-.184.488l-.547 4.107a1.159 1.159 0 0 1-1.184.989l-13.437-.02a1.158 1.158 0 0 1-1.192-1.054l-.3-3.924a1.135 1.135 0 0 0-.207-.57c-1.23-1.761-8.1-12.031-2.536-14.322a1.167 1.167 0 0 0 .729-1.08c0-2.8-.015-12.081-.019-15.172a2.675 2.675 0 0 1 2.8-2.766 2.675 2.675 0 0 1 2.8 2.76l.015 7.124a1.186 1.186 0 0 0 1.193 1.177 1.219 1.219 0 0 0 .188-.014 5 5 0 0 1 .764-.063 3.669 3.669 0 0 1 3.089 1.565 1.178 1.178 0 0 0 .955.473 1.248 1.248 0 0 0 .315-.038 5.122 5.122 0 0 1 1.279-.171 3.659 3.659 0 0 1 3.215 1.8 1.04 1.04 0 0 0 .839.476c1.212.043 4.025.566 4.685 4.416.614 3.566.332 8.353-3.26 13.823zM.293 5.471l3.83 3.858a1 1 0 0 0 1.414 0 1.013 1.013 0 0 0 0-1.425L3.506 5.858h9.584a1.008 1.008 0 0 0 0-2.015H3.323l2.115-2.131a1.012 1.012 0 0 0 0-1.425.995.995 0 0 0-1.414 0L.293 4.046a1.013 1.013 0 0 0 0 1.425z" class="cls-1"/></svg>