<svg xmlns="http://www.w3.org/2000/svg" width="26" height="23" viewBox="0 0 26 23"><path d="M25.442 6.223C24.727 2.624 22.169.304 18.873.304c-1.843 0-3.838.759-5.789 2.189C11.111 1.02 9.116.26 7.252.26 3.956.26 1.375 2.602.682 6.244-.359 11.643 2.98 18.82 12.758 22.722a.883.883 0 0 0 .326.066.862.862 0 0 0 .325-.066c9.757-3.989 13.074-11.143 12.033-16.499zM13.084 20.944C4.499 17.388 1.528 11.188 2.416 6.57c.521-2.754 2.429-4.553 4.836-4.553 1.626 0 3.447.78 5.268 2.276.325.26.78.26 1.106 0 1.821-1.452 3.621-2.212 5.247-2.212 2.406 0 4.293 1.756 4.835 4.489.889 4.574-2.06 10.754-10.624 14.374zm0 0"/></svg>