<svg xmlns="http://www.w3.org/2000/svg" width="27" height="27" viewBox="0 0 27 27"><path d="M18.563 0H8.438A8.438 8.438 0 0 0 0 8.438v10.125A8.438 8.438 0 0 0 8.438 27h10.125A8.438 8.438 0 0 0 27 18.563V8.438A8.438 8.438 0 0 0 18.563 0zm5.906 18.563a5.912 5.912 0 0 1-5.906 5.906H8.438a5.912 5.912 0 0 1-5.906-5.906V8.438a5.912 5.912 0 0 1 5.906-5.906h10.125a5.912 5.912 0 0 1 5.906 5.906v10.125z"/><path d="M13.5 6.75a6.75 6.75 0 1 0 0 13.5 6.75 6.75 0 0 0 0-13.5zm0 10.969A4.225 4.225 0 0 1 9.281 13.5c0-2.327 1.893-4.219 4.219-4.219s4.219 1.892 4.219 4.219a4.226 4.226 0 0 1-4.219 4.219z"/><circle cx="20.76" cy="6.24" r=".9"/></svg>