<svg xmlns="http://www.w3.org/2000/svg" width="32" height="13" viewBox="0 0 32 13"><g fill-rule="evenodd" clip-rule="evenodd"><path d="M14.972 5.184c-.21.018-.347.076-.43.182-.132.168-.114.418-.053.597.062.183.177.319.291.348a.627.627 0 0 0 .614-.168.652.652 0 0 0 .178-.607c-.057-.21-.337-.374-.6-.352zm16.109 7.022c-.204-.176-.876-.311-1.153-.381a23.965 23.965 0 0 0-1.302-.287 34.8 34.8 0 0 0-2.725-.4 69.22 69.22 0 0 0-1.507-.15c-2.306-.207-4.623-.292-6.937-.32-4.545-.055-9.15-.105-13.59.99-.831.205-1.67.428-2.48.706-.118.041-1.197.44-1.137.57.041.091.712-.085.835-.124 5.194-1.64 10.718-1.627 16.107-1.446 1.391.046 2.781.095 4.17.183 2.396.151 4.81.385 7.151.935.448.106.732.214 1.179.325.329.082.734-.128.894-.21.137-.071.648-.258.495-.391zm-4.419-7.419c0 .713.58 1.294 1.293 1.294s1.293-.581 1.293-1.294c0-.713-.58-1.294-1.293-1.294s-1.293.58-1.293 1.294zm.272 0c0-.563.457-1.021 1.02-1.021a1.021 1.021 0 0 1 0 2.043c-.562 0-1.02-.459-1.02-1.022zm.553.65V4.12h.558c.14 0 .242.012.306.035a.303.303 0 0 1 .152.127c.038.06.058.13.058.208 0 .099-.029.18-.087.245a.416.416 0 0 1-.26.122c.057.034.104.07.142.111.037.04.088.111.15.213l.161.257h-.317l-.191-.286a2.018 2.018 0 0 0-.139-.194.213.213 0 0 0-.08-.055.427.427 0 0 0-.133-.015h-.053v.549h-.267zm.266-.76h.195a.997.997 0 0 0 .237-.016.14.14 0 0 0 .074-.056.17.17 0 0 0 .027-.099.16.16 0 0 0-.035-.107.16.16 0 0 0-.1-.051 2.114 2.114 0 0 0-.193-.005h-.206v.334zM4.173 1.611a6.794 6.794 0 0 0-1.616.652 7.451 7.451 0 0 0-.828.518c-.225.169-.462.368-.567.637-.1.255-.161.736.251.7.116-.01.259-.046.364-.1.23-.118.372-.354.57-.514.208-.169.431-.311.666-.438.528-.284 1.095-.493 1.7-.513.377-.012.516.008.881.092.04.01-.591 1.055-.986 1.788-.077.14-.913 1.767-1.038 1.873-.16.134-.23.131-.425.135-.166.002-.323.005-.463.057-.122.045-.243.193-.303.369-.061.181-.049.358.034.488.07.109.204.141.417.184.07.014.224-.028.263.043.041.074-.065.21-.104.274a7.911 7.911 0 0 1-.077.139c-.253.45-.515.914-.707 1.457-.082.233-.24.793.07.98a.586.586 0 0 0 .716-.075c.357-.323.714-1.498.714-1.498.136-.511.447-1.278.503-1.338.078-.083.243-.079.347-.105.255-.066.506-.157.749-.255A6.385 6.385 0 0 0 6.48 6.54c.183-.122.36-.252.533-.387.625-.485 1.447-1.264 1.366-2.421-.053-.758-.361-1.347-.916-1.749-.771-.559-2.001-.699-3.29-.372zm1.879 1.801c.121-.199.254-.458.51-.495.345-.05.675.289.852.549.359.528-.131 1.123-.465 1.505-.402.462-.942.768-1.502.999-.256.105-.353.169-.619.251-.2.062-.025-.465.057-.606.185-.32.975-1.887 1.167-2.203zM15.404.048a1.51 1.51 0 0 0-.55.199 3.9 3.9 0 0 0-1.02.882 9.576 9.576 0 0 0-.329.423c-.399.549-.729 1.145-1.035 1.75a45.552 45.552 0 0 0-.84 1.756c-.202.443-.399.889-.595 1.335-.035.081-.067.166-.106.245a1.2 1.2 0 0 1-.548.518 1.666 1.666 0 0 1-.596.16c-.091.009-.16-.019-.175-.115-.016-.105-.017-.21-.044-.314a.704.704 0 0 0-.27-.415c-.298-.204-.818-.279-1.21-.175-.29.077-.578.275-.823.46-.418.315-.978.805-1.272 1.345-.217.399-.377.979-.17 1.412.095.199.247.401.442.51.202.113.441.13.667.11.317-.028.595-.115.878-.257.408-.204.713-.507.998-.86.214-.264.386-.552.577-.831l.125-.181c.308.085.914-.192.914-.192l-.05.135c-.412 1.015-.048 1.474.073 1.59.13.125.366.184.544.199.925.076 1.61-.501 2.161-.965l.592-.479-.044.288c-.049.346-.109.777.054.989.165.213.523.324.914.283.507-.054.961-.386 1.339-.703l.159-.134c.337-.282.629-.526.844-.775.116-.133.319-.277.215-.473a.27.27 0 0 0-.158-.126c-.153-.048-.32.03-.453.1-.152.08-.29.186-.43.284l-.19.131-.144.111c-.164.126-.331.261-.526.336-.119.045-.287.098-.412.057-.16-.052-.116-.294-.107-.422.004-.058.007-.118.015-.176.028-.209.08-.414.127-.619.039-.176.099-.375.034-.553-.064-.176-.245-.171-.402-.158-.188.015-.33.157-.414.316l-.078.19c-.026.064-.045.134-.11.166-.337.17-.643.393-.972.576l-.355.202-.15.091a3.003 3.003 0 0 1-.452.244 1.732 1.732 0 0 1-.41.102c-.114.018-.244.038-.334-.045-.218-.197.035-.655.103-.87.046-.147.095-.3.195-.441.09-.128.197-.242.3-.352l.17-.186.499-.589c.32-.383.646-.781.968-1.184l.536-.678.121-.154c.54-.691 1.152-1.475 1.594-2.286.15-.276.288-.56.351-.87.05-.247.068-.537-.122-.73-.172-.174-.392-.215-.613-.187zm-3.041 5.114l-.032-.022-.017-.041c-.079-.236 1.481-3.153 2.189-3.683.188-.14.314-.124.393-.079a.223.223 0 0 1 .165.174.29.29 0 0 1 .006.06c0 .752-2.289 3.405-2.544 3.578-.074.05-.128.034-.16.013zM6.671 8.873c-.142-.429.405-1.078.576-1.267.784-.864 1.185-.654 1.289-.57.231.188.195.607-.085.996l-.037.051c-.423.59-.91 1.182-1.324 1.102-.278-.053-.381-.199-.419-.312zm11.041-2.285c-.199.134-.254.45-.307.757-.074.43-.171.857-.251 1.287a1.518 1.518 0 0 0-.044.428c.01.218.082.388.217.506.157.138.39.197.676.172.51-.045.981-.394 1.397-.702.157-.116.305-.226.45-.317l.033-.021c.096-.061.203-.108.306-.157.12-.057.272-.134.407-.138.075-.002.088.045.096.11.018.147.021.295.024.438.005.247.009.48.096.633.098.171.341.284.53.308.931.119 1.648-.517 2.077-.896.04-.035.096-.129.15-.139.089-.017.053.151.056.203.018.346.205.515.605.545.513.039 1.016-.046 1.418-.238.155-.074.285-.18.412-.282.112-.09.216-.175.333-.235.092-.047.091-.049.148.041.189.302.538.661 1.129.657.47-.003.907-.248 1.303-.478a2.66 2.66 0 0 0 .334-.223c.137-.11.277-.223.338-.369a.31.31 0 0 0 .006-.235.153.153 0 0 0-.096-.085c-.197-.067-.413.059-.583.147a3.307 3.307 0 0 1-.63.271c-.148.04-.343.092-.479-.004-.156-.109-.179-.356-.193-.529-.017-.215-.029-.43-.072-.641-.115-.57-.539-.908-1.135-.907-.515.001-1.019.19-1.583.593-.406.29-.801.706-1.082 1.14l-.067.104-.097-.076c-.063-.049-.156-.017-.221.008-.375.145-.646.47-1.039.587-.148.045-.424.113-.532-.046-.108-.16-.013-.414.046-.575.049-.133.095-.259.074-.433a.52.52 0 0 0-.244-.377c-.223-.148-.56-.189-.859-.104-.401.114-.787.384-1.16.646-.224.157-.451.328-.699.447a3.324 3.324 0 0 1-.302.127c-.16.057-.134-.128-.134-.224 0-.084.006-.167.016-.25.019-.151.055-.299.091-.447a3.08 3.08 0 0 0 .09-.474c.017-.202.003-.469-.15-.594-.189-.158-.676-.109-.899.041zm7.004 2.254a.208.208 0 0 1-.146-.123l-.007-.016-.001-.017c-.033-.386.302-.647.572-.858l.037-.028c.291-.228.779-.61 1.142-.534a.432.432 0 0 1 .295.23l.01.017.003.019c.046.287-.111.562-.464.819-.298.215-1.131.581-1.441.491zm0 0"/><path d="M14.972 5.184c-.21.018-.347.076-.43.182-.132.168-.114.418-.053.597.062.183.177.319.291.348a.627.627 0 0 0 .614-.168.652.652 0 0 0 .178-.607c-.057-.21-.337-.374-.6-.352zm16.109 7.022c-.204-.176-.876-.311-1.153-.381a23.965 23.965 0 0 0-1.302-.287 34.8 34.8 0 0 0-2.725-.4 69.22 69.22 0 0 0-1.507-.15c-2.306-.207-4.623-.292-6.937-.32-4.545-.055-9.15-.105-13.59.99-.831.205-1.67.428-2.48.706-.118.041-1.197.44-1.137.57.041.091.712-.085.835-.124 5.194-1.64 10.718-1.627 16.107-1.446 1.391.046 2.781.095 4.17.183 2.396.151 4.81.385 7.151.935.448.106.732.214 1.179.325.329.082.734-.128.894-.21.137-.071.648-.258.495-.391zm-4.419-7.419c0 .713.58 1.294 1.293 1.294s1.293-.581 1.293-1.294c0-.713-.58-1.294-1.293-1.294s-1.293.58-1.293 1.294zm.272 0c0-.563.457-1.021 1.02-1.021a1.021 1.021 0 0 1 0 2.043c-.562 0-1.02-.459-1.02-1.022zm.553.65V4.12h.558c.14 0 .242.012.306.035a.303.303 0 0 1 .152.127c.038.06.058.13.058.208 0 .099-.029.18-.087.245a.416.416 0 0 1-.26.122c.057.034.104.07.142.111.037.04.088.111.15.213l.161.257h-.317l-.191-.286a2.018 2.018 0 0 0-.139-.194.213.213 0 0 0-.08-.055.427.427 0 0 0-.133-.015h-.053v.549h-.267zm.266-.76h.195a.997.997 0 0 0 .237-.016.14.14 0 0 0 .074-.056.17.17 0 0 0 .027-.099.16.16 0 0 0-.035-.107.16.16 0 0 0-.1-.051 2.114 2.114 0 0 0-.193-.005h-.206v.334zM4.173 1.611a6.794 6.794 0 0 0-1.616.652 7.451 7.451 0 0 0-.828.518c-.225.169-.462.368-.567.637-.1.255-.161.736.251.7.116-.01.259-.046.364-.1.23-.118.372-.354.57-.514.208-.169.431-.311.666-.438.528-.284 1.095-.493 1.7-.513.377-.012.516.008.881.092.04.01-.591 1.055-.986 1.788-.077.14-.913 1.767-1.038 1.873-.16.134-.23.131-.425.135-.166.002-.323.005-.463.057-.122.045-.243.193-.303.369-.061.181-.049.358.034.488.07.109.204.141.417.184.07.014.224-.028.263.043.041.074-.065.21-.104.274a7.911 7.911 0 0 1-.077.139c-.253.45-.515.914-.707 1.457-.082.233-.24.793.07.98a.586.586 0 0 0 .716-.075c.357-.323.714-1.498.714-1.498.136-.511.447-1.278.503-1.338.078-.083.243-.079.347-.105.255-.066.506-.157.749-.255A6.385 6.385 0 0 0 6.48 6.54c.183-.122.36-.252.533-.387.625-.485 1.447-1.264 1.366-2.421-.053-.758-.361-1.347-.916-1.749-.771-.559-2.001-.699-3.29-.372zm1.879 1.801c.121-.199.254-.458.51-.495.345-.05.675.289.852.549.359.528-.131 1.123-.465 1.505-.402.462-.942.768-1.502.999-.256.105-.353.169-.619.251-.2.062-.025-.465.057-.606.185-.32.975-1.887 1.167-2.203zM15.404.048a1.51 1.51 0 0 0-.55.199 3.9 3.9 0 0 0-1.02.882 9.576 9.576 0 0 0-.329.423c-.399.549-.729 1.145-1.035 1.75a45.552 45.552 0 0 0-.84 1.756c-.202.443-.399.889-.595 1.335-.035.081-.067.166-.106.245a1.2 1.2 0 0 1-.548.518 1.666 1.666 0 0 1-.596.16c-.091.009-.16-.019-.175-.115-.016-.105-.017-.21-.044-.314a.704.704 0 0 0-.27-.415c-.298-.204-.818-.279-1.21-.175-.29.077-.578.275-.823.46-.418.315-.978.805-1.272 1.345-.217.399-.377.979-.17 1.412.095.199.247.401.442.51.202.113.441.13.667.11.317-.028.595-.115.878-.257.408-.204.713-.507.998-.86.214-.264.386-.552.577-.831l.125-.181c.308.085.914-.192.914-.192l-.05.135c-.412 1.015-.048 1.474.073 1.59.13.125.366.184.544.199.925.076 1.61-.501 2.161-.965l.592-.479-.044.288c-.049.346-.109.777.054.989.165.213.523.324.914.283.507-.054.961-.386 1.339-.703l.159-.134c.337-.282.629-.526.844-.775.116-.133.319-.277.215-.473a.27.27 0 0 0-.158-.126c-.153-.048-.32.03-.453.1-.152.08-.29.186-.43.284l-.19.131-.144.111c-.164.126-.331.261-.526.336-.119.045-.287.098-.412.057-.16-.052-.116-.294-.107-.422.004-.058.007-.118.015-.176.028-.209.08-.414.127-.619.039-.176.099-.375.034-.553-.064-.176-.245-.171-.402-.158-.188.015-.33.157-.414.316l-.078.19c-.026.064-.045.134-.11.166-.337.17-.643.393-.972.576l-.355.202-.15.091a3.003 3.003 0 0 1-.452.244 1.732 1.732 0 0 1-.41.102c-.114.018-.244.038-.334-.045-.218-.197.035-.655.103-.87.046-.147.095-.3.195-.441.09-.128.197-.242.3-.352l.17-.186.499-.589c.32-.383.646-.781.968-1.184l.536-.678.121-.154c.54-.691 1.152-1.475 1.594-2.286.15-.276.288-.56.351-.87.05-.247.068-.537-.122-.73-.172-.174-.392-.215-.613-.187zm-3.041 5.114l-.032-.022-.017-.041c-.079-.236 1.481-3.153 2.189-3.683.188-.14.314-.124.393-.079a.223.223 0 0 1 .165.174.29.29 0 0 1 .006.06c0 .752-2.289 3.405-2.544 3.578-.074.05-.128.034-.16.013zM6.671 8.873c-.142-.429.405-1.078.576-1.267.784-.864 1.185-.654 1.289-.57.231.188.195.607-.085.996l-.037.051c-.423.59-.91 1.182-1.324 1.102-.278-.053-.381-.199-.419-.312zm11.041-2.285c-.199.134-.254.45-.307.757-.074.43-.171.857-.251 1.287a1.518 1.518 0 0 0-.044.428c.01.218.082.388.217.506.157.138.39.197.676.172.51-.045.981-.394 1.397-.702.157-.116.305-.226.45-.317l.033-.021c.096-.061.203-.108.306-.157.12-.057.272-.134.407-.138.075-.002.088.045.096.11.018.147.021.295.024.438.005.247.009.48.096.633.098.171.341.284.53.308.931.119 1.648-.517 2.077-.896.04-.035.096-.129.15-.139.089-.017.053.151.056.203.018.346.205.515.605.545.513.039 1.016-.046 1.418-.238.155-.074.285-.18.412-.282.112-.09.216-.175.333-.235.092-.047.091-.049.148.041.189.302.538.661 1.129.657.47-.003.907-.248 1.303-.478a2.66 2.66 0 0 0 .334-.223c.137-.11.277-.223.338-.369a.31.31 0 0 0 .006-.235.153.153 0 0 0-.096-.085c-.197-.067-.413.059-.583.147a3.307 3.307 0 0 1-.63.271c-.148.04-.343.092-.479-.004-.156-.109-.179-.356-.193-.529-.017-.215-.029-.43-.072-.641-.115-.57-.539-.908-1.135-.907-.515.001-1.019.19-1.583.593-.406.29-.801.706-1.082 1.14l-.067.104-.097-.076c-.063-.049-.156-.017-.221.008-.375.145-.646.47-1.039.587-.148.045-.424.113-.532-.046-.108-.16-.013-.414.046-.575.049-.133.095-.259.074-.433a.52.52 0 0 0-.244-.377c-.223-.148-.56-.189-.859-.104-.401.114-.787.384-1.16.646-.224.157-.451.328-.699.447a3.324 3.324 0 0 1-.302.127c-.16.057-.134-.128-.134-.224 0-.084.006-.167.016-.25.019-.151.055-.299.091-.447a3.08 3.08 0 0 0 .09-.474c.017-.202.003-.469-.15-.594-.189-.158-.676-.109-.899.041zm7.004 2.254a.208.208 0 0 1-.146-.123l-.007-.016-.001-.017c-.033-.386.302-.647.572-.858l.037-.028c.291-.228.779-.61 1.142-.534a.432.432 0 0 1 .295.23l.01.017.003.019c.046.287-.111.562-.464.819-.298.215-1.131.581-1.441.491zm0 0"/></g></svg>