<svg xmlns="http://www.w3.org/2000/svg" width="30" height="14" viewBox="0 0 30 14"><path fill-rule="evenodd" d="M18.21 11.079v1.026h-1.054v-1.568c.25-.007.18-.101.562-.101.414 0 .134.18.334.229.039.01.096.005.158-.006v.42zM4.217 1.621c-.03.791-.044 1.545-.044 2.266 0 .905.014 1.761.044 2.569h-.665c.026-.693.04-1.506.04-2.439 0-.741-.005-1.383-.015-1.927h-.891c-.02.115-.053.267-.101.455-.048.186-.108.393-.178.619-.072.227-.152.465-.243.717a11.462 11.462 0 0 1-.627 1.448 5.212 5.212 0 0 1-.36.596 2.244 2.244 0 0 1-.374.419.674.674 0 0 1-.376.175L.389 5.85c.065-.014.139-.068.223-.161.083-.092.171-.213.265-.363.093-.148.19-.319.288-.513.099-.195.196-.402.291-.621.095-.219.187-.445.276-.677.09-.233.17-.463.243-.687.072-.225.133-.441.185-.648.052-.207.09-.393.115-.559h1.942zm4.289 4.274l-.022.56h-2.91a59.434 59.434 0 0 0 0-4.835h2.729l-.03.554A48.06 48.06 0 0 0 6.17 2.13c.015.384.022.902.022 1.555.639 0 1.21-.014 1.71-.044v.554a39.884 39.884 0 0 0-1.71-.034c0 .636.011 1.233.032 1.791.8 0 1.56-.02 2.282-.057zm3.689-4.274l-.022.584a75.864 75.864 0 0 0-2.163-.038c.027.483.041 1.147.041 1.993 0 1.031.013 1.795.043 2.295h-.672c.029-.599.043-1.364.043-2.295 0-1.081-.015-1.928-.043-2.54h2.773zm4.28 4.835h-.746a3.155 3.155 0 0 1-.105-.319c-.196-.79-.402-1.303-.62-1.541-.218-.237-.563-.356-1.037-.356-.144 0-.255.004-.333.012 0 .8.012 1.535.037 2.205h-.679c.033-.768.051-1.613.051-2.54 0-.871-.017-1.636-.051-2.295h.679a63.424 63.424 0 0 0-.037 2.132c.118.008.229.012.333.012.409 0 .748-.138 1.018-.415.27-.278.466-.757.589-1.437a.726.726 0 0 1 .104-.29h.621c-.026.07-.07.205-.133.405-.153.567-.322.988-.505 1.264a1.74 1.74 0 0 1-.687.618v.041c.306.111.541.284.704.514.164.232.378.748.643 1.546.029.09.081.238.154.444zm4.603 0h-.686c.034-.46.05-1.148.05-2.065 0-.421.008-.956.022-1.604h-.037c-.084.248-.534.881-1.349 1.898-.76.948-1.141 1.537-1.141 1.771h-.505c.041-.656.062-1.421.062-2.295 0-.888-.021-1.735-.062-2.54h.679c-.034.669-.05 1.42-.05 2.251 0 .426-.011.899-.033 1.419h.04c.098-.247.56-.877 1.383-1.89.746-.919 1.119-1.512 1.119-1.779h.508a58.507 58.507 0 0 0-.054 2.54c0 .873.019 1.637.054 2.294zm5.004 0h-.686c.034-.46.05-1.148.05-2.065 0-.421.007-.956.022-1.604h-.037c-.084.248-.534.881-1.349 1.898-.76.948-1.141 1.537-1.141 1.771h-.505a37.38 37.38 0 0 0 .061-2.295c0-.888-.021-1.735-.061-2.54h.679c-.035.669-.051 1.42-.051 2.251 0 .426-.011.899-.033 1.419h.039c.099-.247.561-.877 1.384-1.89.745-.919 1.119-1.512 1.119-1.779h.509a56.958 56.958 0 0 0-.054 2.54c0 .873.019 1.637.054 2.294zM25.408.258c0 .272-.084.518-.251.738-.168.219-.453.328-.857.328-.418 0-.713-.11-.884-.332A1.185 1.185 0 0 1 23.16.25l.519-.07c0 .494.207.742.621.742.244 0 .408-.064.495-.191.086-.128.129-.311.129-.551l.484.078zm-9.307 10.476c-.364-.175-.779-.014-.801.182.193-.092.249-.109.437-.109.288 0 .083.145.218.145.069 0 .23-.027.278-.055.083-.047.08-.012.057-.136-.026-.138.215-.173.392-.173-.06-.086.028-.073-.291-.073-.187 0-.226.097-.29.219zm11.997-7.217V2.112h.616c.124 0 .218.013.283.038a.305.305 0 0 1 .154.133.397.397 0 0 1 .058.212.359.359 0 0 1-.095.252.486.486 0 0 1-.295.13.445.445 0 0 1 .111.07c.054.05.105.112.152.187l.24.383h-.23l-.184-.292a2.554 2.554 0 0 0-.132-.194.432.432 0 0 0-.093-.094.284.284 0 0 0-.084-.037.584.584 0 0 0-.102-.007h-.213v.624h-.186zm.185-.785h.394c.084 0 .15-.009.197-.027a.202.202 0 0 0 .107-.084.224.224 0 0 0 .037-.126.21.21 0 0 0-.071-.164c-.048-.043-.123-.064-.225-.064h-.439v.465zm.42-1.054c.31 0 .591.127.795.333a1.141 1.141 0 0 1 0 1.607 1.112 1.112 0 0 1-1.59 0c-.203-.205-.329-.49-.329-.804s.126-.598.329-.803a1.12 1.12 0 0 1 .795-.333zm.708.422a.992.992 0 0 0-1.416 0 1.014 1.014 0 0 0-.293.715c0 .279.112.532.293.715a.994.994 0 0 0 1.416 0c.181-.183.293-.436.293-.715 0-.279-.112-.533-.293-.715zM17.156 7.815v-.746h2.28c.207 0 .414.031.607.108-.113.036-.156.129-.218.24-.426-.227-.925-.045-.957.193.232-.106.299-.124.522-.117.342.01.093.181.254.185a1.04 1.04 0 0 0 .332-.057c.1-.054.095-.012.073-.164-.015-.1.078-.153.2-.178.122.073.232.165.327.275.133.156.227.339.287.537.062.206.09.42.09.635 0 .444-.051.868-.353 1.213-.275.313-.745.453-1.165.453h-.941l.023-.038c.039-.069.063-.08.131-.112.118-.055.257-.045.417-.045v-.068c-.463-.039-.544-.139-.789.237-.244-.059-.405-.291-1.022.031-.063.033-.086.033-.099.049V7.815zm1.054.887v.654h1.124c.146 0 .332-.023.429-.15a.559.559 0 0 0 .03-.043c.079.043-.019.131.089.131.073 0 .243-.03.294-.058.088-.05.085-.013.061-.144-.02-.111.121-.158.272-.175h.036l-.001-.003c.037-.003.074-.004.109-.004-.063-.091.029-.077-.309-.077a.343.343 0 0 0-.136.023c-.108.023-.14.101-.189.196a.65.65 0 0 0-.153-.054c.024-.086.033-.178.033-.268a.702.702 0 0 0-.148-.465c-.106-.127-.26-.161-.416-.161h-1.124l-.001.598zm5.076-1.165c-.72-.392-.943-.399-1.679-.16-.18.059-.573.161-.646.366.156.135.451-.123.761-.123.337 0 .857-.069 1.082.247h-.16c.03.363.328.201.568.171.301-.037.538-.062.675-.254-.071-.099-.08-.11-.24-.123.401-.615.607-.453 1.242-.453v-.125c-.163-.003-1.113-.247-1.371.074l-.232.38zm2.364.165c-.401-.198-.858-.016-.882.206.213-.105.274-.124.481-.124.317 0 .092.165.241.165a.935.935 0 0 0 .306-.062c.091-.053.088-.014.063-.154-.028-.157.237-.196.432-.196-.066-.098.031-.082-.321-.082-.206 0-.249.109-.32.247zm-2.124 1.607c-.297-.071-.493-.354-1.246.038-.139.072-.118.017-.157.168.348 0 .238-.123.722-.123.505 0 .164.219.407.279.155.038.536-.102.635-.156v-.123c-.147-.013-.133.016-.067-.098.048-.084.077-.098.16-.136.143-.066.314-.054.508-.054v-.083c-.565-.048-.663-.17-.962.288zm-3.553 1.51c.09-.001.401.039.488.086l.012.007.013.007.012.008.012.008.011.008.011.009.011.009.01.01.01.01.01.011.009.011.009.012.009.012h-.132l.001.014.001.013.002.013.002.012.002.012.003.011.003.01.007.018.004.008.004.008.004.008.005.007.005.006.005.006.005.006.006.005.005.005.006.004.006.004.006.003.007.003.007.003.015.005.007.002.007.001.008.001.008.001.025.001h.034l.017-.002.009-.001.028-.004.009-.002.009-.001.01-.002.009-.002.019-.004.009-.002.01-.002.019-.004.01-.002.009-.002.009-.002.029-.006.009-.002.01-.001.009-.002.01-.001.009-.001.009-.001.023-.003.011-.001.011-.001.012-.001.011-.001.011-.001.011-.001.011-.001.043-.006.011-.001.02-.003.01-.002.01-.001.03-.005.029-.006.009-.002.019-.004.009-.002.009-.002.009-.002.018-.005.009-.003a.134.134 0 0 0 .026-.009.244.244 0 0 0 .024-.01l.008-.003.008-.003.015-.007a.267.267 0 0 0 .023-.013l.028-.018a.121.121 0 0 0 .014-.01l.032-.028a.44.44 0 0 0 .029-.032l.011-.015-.013-.017-.002-.003-.002-.003-.007-.009-.002-.002-.004-.006-.002-.002-.006-.007-.004-.02-.002-.002-.002-.002-.004-.003-.004-.003-.005-.003-.002-.001-.005-.002-.002-.001-.008-.003-.008-.003a.476.476 0 0 0-.107-.016c.061-.094.117-.167.171-.222l.014-.013.014-.013.013-.012.013-.012.026-.02.026-.018.013-.008.026-.015.014-.007.026-.012.027-.01.013-.004.014-.004.014-.003.014-.003.014-.002.015-.002.014-.002.029-.003.015-.001h.061c.116 0 .254.015.433.015v-.101h-.014l-.009-.001-.009-.001-.033-.004-.012-.002-.014-.002-.014-.002-.015-.002-.082-.013-.018-.003-.057-.009a1.008 1.008 0 0 0-.061-.008l-.021-.003-.043-.005-.021-.002-.022-.002-.022-.002-.022-.002-.044-.003-.023-.001-.022-.001-.045-.002-.045-.001h-.066l-.022.001-.021.001-.021.001-.021.002-.02.002-.02.003-.02.003-.019.004-.019.004-.019.004a.12.12 0 0 0-.018.005l-.018.006-.017.006a.122.122 0 0 0-.017.007c-.005.002-.011.004-.015.007l-.015.007-.015.008-.014.009-.013.009-.013.01-.012.011-.011.012-.011.012-.19.312-.028-.015-.027-.015-.026-.014-.026-.02-.025-.013-.025-.013-.025-.012-.023-.012-.024-.011-.023-.011-.045-.02-.022-.009-.021-.009-.021-.009-.021-.008-.02-.008-.02-.007-.02-.007-.019-.007-.039-.012-.019-.005-.019-.005-.018-.005a1.018 1.018 0 0 0-.456.005l-.021.005-.022.005-.045.011-.023.006-.047.013-.024.007-.025.007a1.65 1.65 0 0 0-.077.024l-.082.026-.071.022-.037.012a.568.568 0 0 0-.038.013l-.01.003-.01.003-.041.015-.041.015-.02.009-.01.004-.01.004-.01.004-.01.004-.01.004-.01.004-.01.005-.01.005-.01.005-.009.005-.018.011-.017.011-.009.006-.008.006-.008.005-.008.006-.008.006-.007.006-.008.006-.014.013-.013.013-.012.014-.005.007-.005.007-.005.008-.009.015-.003.008-.003.007-.003.008.006.005.013.009.014.007.007.002.007.002.015.004.007.001.008.001h.032l.016-.002.008-.001.009-.001.009-.002.009-.002.009-.002.018-.005.009-.003.019-.006.019-.007.01-.003.01-.003.01-.003.01-.003.02-.008.01-.004.032-.012c.237-.075.246-.068.549-.07zm-.683.794c.012-.006.023-.011.061-.011.076 0 .082.008.107.017a.126.126 0 0 0 .01.003h.002l.005.001.005.001.003.001h.006l.004.001h.004l.004.001h.009l.004.001h.005l.011.001h.006l.006.001h.006c.013.157-.035.059.065.135l.005-.001.004-.001.008-.002.012-.003.003-.001.023-.006.006-.002a.943.943 0 0 0 .025-.006l.014-.003h.002l.02-.003h.003l.006-.001h.007l.007-.001h.086V11.6h.263l-.006-.009-.006-.008-.014-.015-.014-.014-.007-.006-.007-.006-.007-.006-.014-.01-.007-.004-.007-.004-.007-.004-.022-.009-.007-.002-.007-.001-.007-.002h-.007l-.015-.002-.015-.001h-.007l-.022.001-.007.001-.006.001-.015.003-.007.002-.007.001-.007.002-.007.002-.007.002-.007.002-.007.003-.007.002-.007.002-.006.003-.007.003-.007.003-.006.003-.007.003-.006.003-.007.003-.012.007-.013.007-.012.007a1.041 1.041 0 0 0-.049.033l-.001-.001-.001-.001-.001-.001-.004-.004-.003-.003h-.003c-.003.006-.015-.013-.019-.015l-.007-.001-.003-.001-.002-.002-.002-.001-.004-.003-.002-.001-.002-.001-.001-.001-.002-.001-.001-.001-.001-.001-.001-.001h-.001l-.002-.001-.003-.003v-.001h-.003l-.002-.001h-.002l-.006-.006-.001-.001h-.003l-.004-.002h-.002l-.002-.001-.002-.001-.006-.002-.006-.002-.005-.002-.012-.004-.006-.001-.006-.001-.006-.001-.006-.001-.006-.001-.006-.001-.006-.001h-.006l-.006-.001h-.085l-.006.001h-.006l-.007.001-.013.002-.013.002-.006.001-.006.001-.007.001-.006.001-.006.001-.006.001-.038.009-.012.003-.006.001-.018.005-.072.018v.068l.012-.001.006-.001h.015l.004-.001h.008l.004-.001.007-.001.003-.001h.006l.006-.001.002-.001h.002l.002-.001h.002l.002-.001h.002l.002-.001h.003l.001-.001.003-.001h.001l.001-.001h.001l.005-.01zm2.949-.626a.298.298 0 0 0-.014.024l-.004.008a.163.163 0 0 0-.011.042l.008-.004.008-.003.008-.004.007-.004.015-.007.007-.003.007-.003.007-.003.007-.003.013-.006.007-.003.006-.003.006-.003.006-.002.017-.007.006-.003.005-.002.006-.002.005-.002.005-.001.005-.002.006-.002.005-.001.005-.002.011-.003.005-.002.005-.001.005-.001.005-.001.005-.001.005-.001.005-.001.005-.001c.245-.045.351.124.361.124h.031l.008-.001h.012l.017-.002.004-.001h.009l.004-.001h.005l.004-.001h.005l.004-.001h.005l.005-.001.004-.001h.009l.01-.002.004-.001.005-.001.009-.002.005-.001.017-.004.021-.006.008-.002.004-.001.007-.002a.044.044 0 0 0 .016-.006l.003-.001.002-.001.003-.001.002-.001.002-.001.002-.001.002-.001.007-.004.003-.001.003-.002.012-.006.002-.001.002-.001.002-.001.002-.001.002-.001.008-.004.001-.001h.001l.003-.002h.001l.001-.001.001-.001.002-.002h.001v-.001l.001-.001v-.001l.002-.005v-.037l-.002-.012v-.003l-.001-.003v-.003l-.001-.004v-.008l-.001-.004-.002-.009v-.005l-.001-.005-.001-.005-.002-.012v-.017l.001-.005.001-.005.001-.005.001-.005.002-.004.002-.005.002-.004.006-.009.003-.004.003-.004.004-.004.004-.004.004-.003.004-.004.004-.003.005-.003.005-.003.005-.003.006-.003.005-.003.006-.002.006-.003.006-.002.006-.003.006-.002.007-.002.007-.002.007-.002.007-.002.007-.002.015-.004.008-.001.007-.002.015-.003.008-.001.008-.001.008-.001.008-.001.008-.001.008-.001.008-.001.008-.001h.016l.008-.001h.087c-.054-.08.025-.068-.263-.068h-.023l-.015.001-.014.002h-.007l-.006.001-.006.001-.006.001-.017.004-.005.002-.005.001-.005.002-.01.004-.01.005-.009.005-.013.009-.004.002-.004.003-.004.003-.003.003-.014.014-.003.004-.003.003-.003.004-.003.004-.006.008-.003.004a.1.1 0 0 0-.011.017l-.003.004c-.016.027-.031.057-.047.089l-.015-.007a.843.843 0 0 0-.078-.031l-.015-.005-.047-.012-.016-.003-.031-.005-.015-.002-.004-.007-.015-.001-.015-.001h-.06l-.029.002-.014.001-.014.001-.014.002-.028.005-.014.003-.013.003-.014.003-.013.004-.013.004-.013.004-.024.009-.012.005-.012.005-.011.005-.011.005-.011.006-.01.005-.01.006-.01.006-.018.013-.008.007-.009.007-.008.007-.015.015-.007.007-.006.008-.006.008-.004.007zm-1.891 2.14l.019.001.018.002.01.001.009.002.01.002.018.005.01.003.018.007.009.004.009.004.018.01.009.005.002.001.026.017c.014.011.025.019.033.028l.016.016.005.007.001.003.001.003.001.002v.009l-.001.001-.001.002-.001.001-.002.001-.001.001-.004.002-.002.001-.002.001-.002.001-.005.001-.002.001-.007.001h-.006l-.002.001h-.004l-.001.001-.001.001v.002l.002.002.002.001.005.003.003.002.003.002.004.002.005.002.005.002.006.003.006.003.007.003.008.003.009.004.009.004.01.004h.194l.005-.001.005-.001.004-.001.004-.001.004-.001.004-.001.004-.001.003-.001.003-.001.004-.001.003-.001.007-.002.003-.001.003-.001.009-.003.003-.001.003-.001.007-.003.008.005.002-.001.002-.001h.002l.002-.001.002-.001.007-.003.002-.001.005-.002.002-.001.002-.001.012-.005.003-.001.005-.002.006-.002.002-.001.003-.001.003-.001.006-.002.01-.003.004-.001.004-.001.003-.001.004-.001.004-.001.004-.001.009-.002.005-.001-.001-.002-.001-.003-.001-.003-.006-.01-.002-.004-.002-.003-.002-.004-.002-.004-.003-.004-.002-.004-.003-.008-.005-.009-.005-.01-.002-.004-.002-.005-.002-.005-.002-.005-.001-.005-.003-.01-.001-.005-.001-.005v-.01c0-.008.001-.016.004-.024.007-.017.023-.034.052-.049.054-.026.152-.044.324-.044v-.068a1.082 1.082 0 0 1-.065-.007l-.024-.003-.012-.001-.012-.002-.011-.001-.021-.004-.01-.002-.01-.001-.01-.002-.01-.001-.009-.002-.018-.003-.009-.001-.026-.003-.009-.003-.008-.001h-.054l-.007.001-.007.001-.007.001-.007.002-.007.002-.007.002-.007.002-.007.002-.007.003-.007.004-.007.003-.007.004-.014.01-.007.005-.015.012-.008.009-.015.015-.015.016-.007.009-.016.019-.016.021-.008.012-.009.012-.026.039-.011-.002-.01-.003-.01-.002-.009-.002-.008-.002-.008-.003-.007-.002-.014-.005-.006-.003-.005-.002-.011-.005-.009-.005-.004-.002-.004-.002-.007-.005-.003-.002-.003-.002-.006-.004-.002-.002-.002-.002-.003-.002-.002-.002-.003-.002-.002-.002-.003-.002-.003-.001-.003-.002-.003-.002-.007-.003-.004-.001-.004-.001-.009-.003-.005-.001-.005-.001-.005-.001-.012-.002-.007-.001-.023-.003a2.076 2.076 0 0 0-.217-.008.573.573 0 0 0-.173.025.391.391 0 0 0-.094.046l-.005.003h-.007l-.009.007-.005.004a.259.259 0 0 0-.018.016l-.008.008-.004.004-.004.004-.004.004-.008.01-.004.005-.007.01-.004.005-.007.01-.003.005.014-.001h.007l.007-.001.007-.001.008-.001.015-.003.023-.004.008-.002.008-.002.008-.002.008-.002.008-.002.009-.002.016-.005.009-.002.009-.002.008-.002.017-.005.009-.002.009-.002.009-.002.009-.002.009-.001.018-.004.009-.001.009-.002.009-.001.009-.001.01-.001.028-.003h.037l.01-.004zm.788-.933l-.011-.004-.022-.008-.011-.004-.021-.009-.011-.004-.011-.005-.011-.005-.011-.004-.011-.005-.011-.005-.011-.004-.012-.005-.011-.004-.023-.009-.012-.004-.012-.004-.013-.004-.012-.004-.013-.003-.013-.004-.026-.006-.014-.003-.014-.002-.014-.002-.015-.002-.015-.001-.015-.001-.015-.001h-.061l-.017.001-.017.002-.018.002-.037.005-.019.004a.142.142 0 0 0-.02.004l-.02.004-.042.011-.022.006-.022.007-.022.008a1.819 1.819 0 0 0-.258.113.67.67 0 0 1-.063.029l-.008.003-.002.001-.002.001h-.002l-.002.001h-.002l-.002.001-.003.002-.002.001-.006.004-.001.001-.001.001-.001.001-.001.001-.003.004-.001.002-.001.001-.003.006v.002l-.004.01v.003l-.002.006-.001.004-.001.003-.001.004-.001.004-.001.004-.002.009-.001.005-.001.005-.001.005-.001.006-.001.005h.026l.023-.001h.011l.011-.001.02-.002.018-.002.009-.001.016-.003.007-.001.008-.002.007-.001.02-.006.013-.004.006-.002.006-.002.006-.002.006-.002.012-.005.005-.002.006-.002.006-.002.006-.002.012-.005.006-.002.006-.002.006-.002.007-.002.006-.002.007-.002.022-.007.016-.004.008-.002c.054-.013.129-.022.247-.022a.693.693 0 0 1 .168.017l.017.006a.126.126 0 0 1 .041.025l.007.008.003.004.006.013.001.005.001.004a.063.063 0 0 1 .003.019l.001.015a.118.118 0 0 0 .015.074l.007.008.008.008.005.003.005.003.006.003.006.003.007.003.008.003.008.002.009.002.006.001.006.001.014.002.015.001h.031l.017-.001.026-.003.037-.006.009-.002.01-.002.039-.008.019-.005a.9.9 0 0 0 .049-.014l.038-.012a.568.568 0 0 0 .038-.013l.018-.006.009-.003.009-.003.008-.003.008-.003.016-.006.015-.007.007-.002.014-.006.007-.003.007-.002.006-.003.006-.003a.315.315 0 0 0 .026-.013l.004-.002c.016-.01.034-.02.044-.028.029-.023.035-.059.025-.073-.016-.021-.088-.005-.128-.007h-.019l-.003-.001H21.4l-.002-.001-.003-.002v-.009l.001-.001v-.002l.001-.001.003-.01.001-.002.001-.002.006-.01.004-.006.003-.005.004-.007.002-.004.002-.004.002-.004.002-.004.003-.004.001-.003.002-.003.001-.003.001-.003.02-.03.001-.002.007-.008.003-.003a.183.183 0 0 1 .05-.036l.008-.003.01-.005.003-.001.011-.005.003-.001.003-.001.003-.001.006-.003.005-.002.005-.002.006-.002.005-.002.023-.008.005-.001.006-.002.017-.004.006-.001.006-.001.006-.001.006-.001.006-.001.006-.001.019-.003h.006l.006-.001.013-.001.006-.001h.013l.013-.001h.013l.014-.001h.207v-.068l-.021-.002-.021-.002-.02-.002-.02-.002-.019-.002-.018-.002-.018-.002-.018-.002-.017-.002-.017-.002-.016-.002-.032-.004-.03-.004-.015-.002-.014-.001-.027-.003-.013-.001-.025-.002h-.082l-.011.001-.01.001-.011.001-.01.002-.01.002-.01.002-.01.003-.009.003-.009.003-.009.004-.01.004-.009.004-.018.011-.009.006-.009.006-.009.007-.009.007-.009.008-.009.008-.009.009-.01.01-.009.01-.009.01-.01.011-.01.012-.01.012m-.156.09a.195.195 0 0 1-.022-.008m-.322.108a.117.117 0 0 1 .02.005m-.001 0l.017.006m.041.025l.007.008M3.774 9.387c.127.095.239.207.336.338.178.243.242.539.242.838 0 .241-.038.483-.142.701a1.355 1.355 0 0 1-.388.489 1.537 1.537 0 0 1-.548.271 2.39 2.39 0 0 1-.624.08H.542V7.069h2.013c.193 0 .385.022.571.074.182.05.35.134.496.256.147.124.258.279.337.456.089.199.12.421.12.639 0 .345-.102.646-.305.893zm1.959-1.285v.835h2.184V9.97H5.733v1.103h2.584v1.033H4.678V7.069h3.746l-.318 1.033H5.733zm5.482 0v4.003H10.16V8.102H8.687V7.069h4.083l-.318 1.033h-1.237zm2.917 0v.835h2.184V9.97h-2.184v1.103h2.584v1.033h-3.639V7.069h3.746l-.319 1.033h-2.372zM1.596 10.009v1.064h1.117c.091 0 .185-.006.275-.027a.32.32 0 0 0 .144-.068.257.257 0 0 0 .076-.124.958.958 0 0 0 .038-.297c0-.147-.027-.307-.137-.411-.116-.109-.281-.138-.434-.138H1.596zm0-1.907v.875h.819a.802.802 0 0 0 .233-.035.673.673 0 0 0 .193-.097.395.395 0 0 0 .116-.14.477.477 0 0 0 .042-.211c0-.079-.009-.251-.08-.305-.095-.07-.23-.087-.344-.087h-.979zm0 0" clip-rule="evenodd"/></svg>