<svg xmlns="http://www.w3.org/2000/svg" width="28" height="16" viewBox="0 0 28 16"><path fill-rule="evenodd" d="M5.734 10.288l.913-3.439h1.492l-.176.719-1.467 5.537H5.079l-.971-3.116-.971 3.116H1.721L.215 7.422l-.163-.573h1.517l.913 3.439.864-2.794H4.87l.864 2.794zm17.863-7.686V.981h.718c.144 0 .254.015.329.044.075.029.135.08.18.154a.46.46 0 0 1 .067.244.41.41 0 0 1-.112.291c-.074.079-.189.129-.344.15.057.027.1.054.129.081.062.057.122.129.177.215l.28.442h-.268l-.214-.338a3.283 3.283 0 0 0-.154-.224.517.517 0 0 0-.109-.108.337.337 0 0 0-.098-.043.647.647 0 0 0-.119-.008h-.248v.72h-.214zm.215-.906h.461c.098 0 .174-.01.229-.031a.236.236 0 0 0 .125-.097.261.261 0 0 0 .043-.145.242.242 0 0 0-.083-.189c-.055-.049-.143-.074-.262-.074h-.512v.536zm.392-1.309a1.398 1.398 0 0 1 1.4 1.4 1.398 1.398 0 0 1-1.4 1.4 1.396 1.396 0 0 1-1.399-1.4 1.396 1.396 0 0 1 1.399-1.4zm.881.518a1.243 1.243 0 0 0-1.762 0 1.245 1.245 0 1 0 1.762 0zm-.899 8.05c-.902-.477-1.181-.485-2.101-.195-.226.071-.718.196-.808.446.196.164.565-.151.953-.151.421 0 1.073-.084 1.355.301h-.2c.037.442.41.245.711.209.377-.046.673-.076.845-.309-.089-.121-.101-.134-.301-.151.501-.748.76-.552 1.555-.552v-.15c-.203-.004-1.393-.301-1.716.09l-.293.462zm2.959.2c-.502-.241-1.074-.019-1.104.251.266-.128.343-.151.602-.151.397 0 .114.2.301.2.095 0 .317-.038.383-.076.114-.064.11-.016.079-.188-.035-.191.297-.238.541-.238-.082-.119.038-.101-.401-.101-.259.002-.311.135-.401.303zm-2.659 1.956c-.372-.087-.618-.431-1.559.046-.173.088-.147.021-.196.205.435 0 .297-.15.903-.15.631 0 .205.267.509.34.194.046.67-.124.795-.19v-.15c-.184-.016-.166.019-.085-.12.061-.102.097-.119.201-.166.179-.081.392-.066.636-.066v-.1c-.707-.058-.83-.207-1.204.351zM3.667 5.486l-.028.665H.092c.036-.744.054-1.774.054-3.091C.146 1.928.128.996.092.267h.839C.894.876.877 1.808.877 3.06c0 1.03-.016 1.855-.051 2.477.902 0 1.85-.017 2.841-.051zm1.569.665h-.855c.045-.976.068-2.007.068-3.091A50.21 50.21 0 0 0 4.381.267h.855a56.519 56.519 0 0 0-.063 2.793c0 1.09.022 2.121.063 3.091zm5.323-.122a4.753 4.753 0 0 1-1.493.243c-1.054 0-1.85-.282-2.387-.847-.537-.563-.804-1.262-.804-2.094 0-.84.293-1.574.874-2.202.583-.63 1.392-.943 2.426-.943.372 0 .725.043 1.059.131l-.112.75c-.496-.12-.896-.18-1.199-.18-.727 0-1.285.22-1.671.662-.386.441-.579.988-.579 1.642 0 .657.222 1.232.665 1.726.443.495 1.069.742 1.877.742.148 0 .367-.023.663-.068a6.777 6.777 0 0 1-.076-1.093 8.4 8.4 0 0 0-.063-1.026h.82a20.17 20.17 0 0 0-.036 1.26c0 .19.011.621.036 1.297zm5.326.122h-.855c.029-1.043.045-1.976.045-2.801h-2.701c0 .668.015 1.603.045 2.801h-.855c.042-1.1.063-2.13.063-3.091 0-1.006-.021-1.937-.063-2.793h.855a61.997 61.997 0 0 0-.054 2.512h2.719c0-.652-.018-1.49-.054-2.512h.855a64.708 64.708 0 0 0 0 5.884zM20.891.267l-.021.638a35.52 35.52 0 0 0-1.845-.046 219.86 219.86 0 0 0-.009 2.201c0 .983.015 2.013.046 3.091h-.825a90.724 90.724 0 0 0 .026-5.292c-.445 0-1.069.019-1.875.054l.022-.646h4.481zm.427 12.606c-.394-.208-.686-.322-.988-.348.116-.108.221-.23.311-.366.023-.033.044-.068.065-.103l-.03.002c.031-.004.015-.036.053-.039-.011-.047.037-.056.036-.087l.001.017c.024-.045.046-.091.068-.137a.093.093 0 0 0-.065.074 1.59 1.59 0 0 1-.202.183c-.502.049-.086.037-.327-.173-.19-.167-.47-.06-.568-.052.04-.147.14-.164.329-.164.488 0 .196-.015.535.164.092-.061.145-.164.247-.164h.108c.058-.145.103-.295.138-.448.028.008.157.036.181.044.154.05.337.134.384.213.142.239-.067-.068.012.273 1.07.249.443.047.655-.082.13-.08.312-.04.439.022.187.092.309.107.13-.046-.332-.284-.57-.249-.853-.099-.244-.364-.517-.439-.911-.495-.015.061-.016.103-.038.168-.041-.012-.14-.076-.285-.126.016-.02.145-.05.322-.043.065-.355.092-.718.092-1.08 0-.383-.038-.765-.124-1.139a3.02 3.02 0 0 0-.421-1.003 2.273 2.273 0 0 0-.183-.238 1.364 1.364 0 0 0-.142.183c.121.01.128.018.182.091-.104.141-.283.16-.51.187-.181.022-.407.14-.429-.126h.121c-.17-.233-.564-.182-.818-.182-.234 0-.457.19-.576.091.055-.151.352-.226.489-.269.556-.175.725-.17 1.269.118l.175-.279a.16.16 0 0 1 .026-.026 2.256 2.256 0 0 0-.39-.27c-.358-.197-.765-.268-1.17-.268H15.87v3.645l.076-.023c.62-.196.885-.226 1.371-.014v-.901c-.17 0-.234.029-.182.251-.825.069-.275.081-.543-.154-.191-.166-.471-.06-.568-.052.039-.147.14-.165.329-.165.488 0 .197-.015.535.165.092-.061.144-.165.247-.165.068 0 .128-.001.182.004v-.461c-.131-.014-.139-.003-.223-.118.013-.016.099-.039.223-.043v-.587h1.248c.17 0 .355.026.503.115a.89.89 0 0 1 .318.324c.046.078.083.162.114.247.371-.119.505.033.693.077.226-.337.3-.247.727-.212v.061c-.147 0-.276-.009-.385.04-.062.028-.085.038-.121.1-.049.084-.06.063.051.072v.091c-.075.04-.363.142-.48.115-.184-.045.074-.206-.308-.206-.053 0-.097.002-.134.005.015.054.027.109.037.164.046.249.065.503.065.756 0 .247-.014.495-.049.74a.866.866 0 0 1 .5.076c.073-.138.117-.247.329-.247.36 0 .262-.015.329.082-.2 0-.473.039-.444.195.026.14.029.101-.064.154a.984.984 0 0 1-.314.062c-.153 0 .079-.165-.247-.165-.045 0-.082 0-.117.003-.031.148-.08.295-.154.427a.776.776 0 0 1-.302.302c-.158.089-.362.112-.54.112h-1.256v-.537c-.156.025-.287.006-.305-.224h.165c-.232-.316-.766-.247-1.111-.247a.79.79 0 0 0-.194.027v.829c.075.022.086.031.153.09.133-.089.362-.236.535 0h-.329v.165c-.163 0-.167.013-.288.041a.261.261 0 0 0-.071-.041v.878a.408.408 0 0 1 .126-.017c.36 0 .261-.015.329.082-.2 0-.473.039-.444.195.019.105.026.109-.011.127v.014h2.797c.095 0 .187-.003.282-.011.187-.008.633-.135.878-.14.339-.008.789-.033.995.249h-.165c.03.362.337.201.583.171.309-.037.552-.062.692-.254-.073-.099-.082-.11-.247-.124.411-.614.623-.453 1.276-.453v-.123c-.167-.004-1.143-.247-1.408.073l-.236.38zm-2.264.987v.082c.163-.014.099-.041.206-.041.155 0 .077.027.246.041.016.191-.044.072.082.165.121-.029.126-.041.288-.041v-.165h.329c-.173-.236-.402-.089-.535 0-.007-.006-.019-.026-.023-.019-.004.008-.018-.015-.024-.018-.08-.049 0-.013-.081-.045-.147-.058-.353.01-.488.041zm1.779-2.046c.069-.025.191-.01.361-.01-.069-.094-.193-.118-.303-.123-.01.035-.048.113-.058.133zm2.912 1.223c-.412-.198-.881-.016-.905.205.218-.105.281-.123.494-.123.326 0 .094.165.247.165.078 0 .26-.031.314-.062.094-.053.091-.013.064-.154-.029-.156.244-.195.444-.195-.068-.097.031-.082-.329-.082-.213-.001-.256.108-.329.246zm-2.674 2.716c-.294-.069-.048-.123-.576-.123-.22 0-.363.073-.452.206.181-.004.457-.176.699 0 .221.161-.159.055.124.164h.242c.132-.033.125-.053.251-.082-.024-.067-.277-.288.412-.288v-.082c-.374-.032-.457-.159-.7.205zm.493-1.111c-.306-.071-.507-.354-1.279.037-.142.072-.121.017-.161.169.357 0 .244-.123.741-.123.518 0 .168.219.418.279.159.038.55-.102.652-.155v-.123c-.151-.013-.136.016-.069-.098.049-.084.079-.097.164-.136.147-.066.322-.054.522-.054v-.082c-.58-.05-.681-.172-.988.286zm-3.648-2.241c-.306-.071-.507-.354-1.279.038-.142.072-.121.017-.161.168.357 0 .244-.123.741-.123.518 0 .168.219.417.279.159.038.55-.102.652-.155v-.123c-.151-.013-.136.016-.069-.098.049-.084.079-.097.164-.136.148-.066.322-.054.523-.054v-.082c-.581-.051-.681-.172-.988.286zM9.893 6.85v6.254H8.448V6.85h1.445zm4.11 3.521V6.85h1.446v3.735c-.147.06-.285.141-.325.252.079.066.192.037.325-.009v.743c-.188.036-.198.045-.346.157.081-.015.288-.068.346-.068v1.247c-.374-.146-.776.002-.839.197h-.604l-.314-.507c.28-.258.521-.158 1.035-.158v-.123c-.14-.003-.852-.176-1.234-.04l-.713-1.152.01.001c.137.019.497.143.566.259.142.239-.067-.069.012.273 1.07.249.443.047.655-.082.13-.079.312-.04.439.022.186.092.309.107.129-.046-.332-.284-.57-.249-.853-.099-.305-.455-.799-.513-1.061-.492l-.901-1.457v2.073h-.013c-.189 0-.29.017-.329.165.062-.005.201-.051.342-.039v.79a5.146 5.146 0 0 0-.419.117c-.185.059-.589.161-.664.366.161.134.464-.123.782-.123.09 0 .194-.005.301-.006v.26H10.33V6.85h1.482l2.191 3.521zm1.282 2.734h-.609a.802.802 0 0 1 .421-.089c.172 0 .188.045.188.089zm0 0" clip-rule="evenodd"/></svg>