<svg xmlns="http://www.w3.org/2000/svg" width="32" height="12" viewBox="0 0 32 12"><path fill-rule="evenodd" d="M.154.094H7.24v11.811H.612a8.817 8.817 0 0 0 2.141-.444c1.265-.416 2.293-1.006 3.085-1.776.526-.511.839-1.038.93-1.583.154-.93-.371-1.738-1.164-2.188-1.334-.757-3.425-.917-4.294-1.958-.397-.474-.589-1.303 1.018-2.025a8.08 8.08 0 0 1 1.784-.568c.532-.093.991-.117 1.376-.073.71.081 1.019.394.928.94-.038.232-.17.481-.396.747-.225.266-.339.406-.341.42-.016.096.022.149.113.159.243.027.499-.173.767-.601.25-.388.404-.754.461-1.095.118-.709-.35-1.125-1.405-1.245-.82-.092-1.785.082-2.891.526C1.385 1.67.638 2.405.481 3.347c-.082.491.063.925.434 1.301 1.327 1.219 5.683 1.307 5.267 3.806a1.643 1.643 0 0 1-.279.656c-.516.748-1.51 1.307-2.977 1.684-1.024.263-1.948.382-2.772.352V.094zm30.64 4.398a.8.8 0 0 1 .803.803.8.8 0 0 1-.803.803.8.8 0 0 1-.803-.803.8.8 0 0 1 .803-.803zm.462 1.239h-.221l-.117-.184a1.145 1.145 0 0 0-.074-.108.192.192 0 0 0-.045-.045.117.117 0 0 0-.036-.016c-.015-.003-.034-.003-.05-.003h-.085v.355h-.182v-.875h.392a.52.52 0 0 1 .176.024.212.212 0 0 1 .107.091c.026.043.039.09.039.14a.24.24 0 0 1-.168.233c.034.032.063.07.089.11l.175.278a.634.634 0 0 0-.462-1.071.632.632 0 0 0-.449 1.084.632.632 0 0 0 .898 0 .08.08 0 0 0 .013-.013zm-.628-.522h.19a.31.31 0 0 0 .1-.013.075.075 0 0 0 .043-.033.09.09 0 0 0 .016-.051.082.082 0 0 0-.029-.065c-.026-.023-.072-.027-.104-.027h-.215v.189zM11.029 7.897a10.18 10.18 0 0 1-.677.835c-.576.639-1.111 1.046-1.584 1.225-.677.257-.932-.171-.895-1.317.025-.763.2-1.671.705-2.671.315-.624.696-1.045 1.036-1.316.857-.682 1.348-.085 1.209.741-.205 1.222-1.782 2.325-2.255 2.469a6.246 6.246 0 0 0-.113.932c-.02.582.151.797.542.657.373-.134.796-.464 1.27-.988.341-.378.649-.775.913-1.18.097-.417.203-.875.329-1.378.051-.206.122-.513.258-.911.033-.095.128-.188.25-.29.122-.101.228-.158.322-.168.078-.008.117.026.112.1-.003.062-.104.333-.277.819a35.928 35.928 0 0 0-.658 2.157c.131-.228.529-.845 1.258-1.789.249-.323.636-.757 1.114-1.306a.37.37 0 0 1 .25-.14c.25-.019.37.102.36.36a.433.433 0 0 1-.077.206c-.709 1.115-1.065 2.005-1.082 2.63-.012.441.166.607.546.516.297-.071.615-.297.964-.678.084-.092.179-.187.27-.303a1.336 1.336 0 0 1-.038-.443c.024-.312.119-.479.295-.505.102-.015.207.04.31.172.185-.189.509-.595.922-1.23.396-.608.674-1.044.9-1.291.355-.387.725-.574 1.116-.561.15.005.299.059.456.148.162.092.24.193.24.313 0 .071-.123.106-.368.099a1.08 1.08 0 0 0-.665.198.642.642 0 0 0-.257.774c.115.309.234.6.318.893.098.346.124.654.096.923.233-.071.499-.331.645-.501.077-.221.213-.467.386-.745.287-.459.723-1.16 1.006-1.156.159.003.242.033.236.101-.001.007-.314.679-.613 1.055a4.905 4.905 0 0 0-.329.462c-.002.002-.002.005-.003.007a1.031 1.031 0 0 0-.179.427c-.031.275.055.404.252.389.342-.026 1.03-.675 2.009-1.856.088-.107.185-.268.354-.449.064-.069.158-.084.244-.08a.43.43 0 0 1 .259.099c.076.061.11.133.107.21.001-.007-.198.241-.614.756-.43.533-.672.948-.709 1.238a.415.415 0 0 0 .012.187c.194.563 1.24-.47 1.489-.717.029-.403.244-.829.648-1.264.431-.463.9-.65 1.376-.566a.427.427 0 0 1 .248.154.375.375 0 0 1 .104.241c-.003.241-.221.486-.662.755-.398.242-.756.402-1.086.469a1.698 1.698 0 0 0-.116.485c-.042.865.985.44 1.318.256.3-.166.592-.376.756-.534.046-.309.163-.652.361-1.018.199-.368.491-.767.868-1.203.331-.383.682-.734 1.038-1.059.362-.33.741-.64 1.127-.929.56-.42 1.024-.62 1.387-.566.117.017.225.094.324.232.103.143.152.274.145.394-.017.314-.2.708-.545 1.16-.338.444-.835.927-1.485 1.438-.503.396-.985.72-1.44 1.002a14.65 14.65 0 0 1-1.309.738c-.044.849.184 1.344.681 1.519.491.174 1.22.031 2.185-.525.041-.023.073-.032.108-.016.046.021.066.065.06.124-.003.035-.013.065-.043.086a3.463 3.463 0 0 1-1.142.523c-.528.137-.989.123-1.385-.012-.649-.221-.975-.756-.949-1.645a6.057 6.057 0 0 1-.693.47c-.541.307-1.755.682-1.882-.42-.331.326-1.374 1.261-1.907.743-.133-.129-.181-.334-.15-.615.014-.129.124-.391.336-.77-.422.43-.695.707-.815.817-.386.356-.713.544-.987.576-.345.04-.505-.095-.468-.574-.159.175-.349.28-.638.402-.077.289-.258.535-.531.755-.267.215-.56.348-.885.413-.489.098-.925.028-1.318-.252a1.352 1.352 0 0 1-.419-.461c-.512.648-1.026 1.033-1.542 1.167-.591.154-.88-.184-.86-1.022a4.15 4.15 0 0 1 .579-2.049 9.231 9.231 0 0 0-1.227 1.527c-.392.608-.769 1.326-1.171 2.132-.067.135-.122.206-.152.217-.093.033-.136-.067-.126-.305.002-.063.023-.115.04-.162.104-.277.182-.6.277-.957zm19.168-6.079c.01-.168-.05-.264-.178-.284-.28-.044-.636.143-1.069.544-.244.227-.503.503-.777.818-.273.314-.567.666-.871 1.065-.333.435-.599.817-.794 1.149a4.066 4.066 0 0 0-.398.844c.26-.117.569-.301.924-.552.353-.249.763-.559 1.218-.961a12.22 12.22 0 0 0 1.16-1.168c.303-.352.51-.654.62-.902.102-.231.158-.421.165-.553zm-5.246 2.831c0-.092-.05-.151-.163-.169-.143-.024-.343.126-.615.445-.236.276-.383.498-.442.664.245-.06.494-.187.754-.361.311-.207.465-.391.466-.579zm-9.005 1.7c-.032.055-.073.106-.111.16a4.603 4.603 0 0 0 1.909.227c0-.048.005-.094.011-.142.022-.211-.013-.599-.135-1.158-.118-.539-.197-.886-.166-1.045a23.608 23.608 0 0 1-1.508 1.958zm-.372.532c-.027.034-.049.067-.076.097.255.597.678.826 1.268.715.408-.076.701-.281.873-.631-.853.134-1.549.087-2.065-.181zM9.962 4.943c-.165.023-.453.365-.794 1.068-.289.596-.438 1.07-.494 1.397.269-.107.79-.438 1.092-.884.04-.06.25-.301.381-.613.195-.464.291-1.035-.185-.968zm0 0" clip-rule="evenodd"/></svg>