<svg xmlns="http://www.w3.org/2000/svg" width="20" height="27" viewBox="0 0 20 27"><path d="M9.998 1.221C4.659 1.227.333 5.555.33 10.894c0 5.195 8.917 15.261 9.295 15.684a.498.498 0 0 0 .742 0c.378-.428 9.295-10.489 9.295-15.684-.003-5.337-4.326-9.664-9.664-9.673zm0 24.268c-1.702-1.99-8.673-10.345-8.673-14.599a8.673 8.673 0 1 1 17.346 0c0 4.254-6.971 12.618-8.673 14.599z"/><path d="M10.173 6.073a5.24 5.24 0 1 0 5.245 5.24 5.25 5.25 0 0 0-5.245-5.24zm0 9.489a4.244 4.244 0 1 1 4.244-4.244 4.25 4.25 0 0 1-4.244 4.244z"/></svg>