<svg xmlns="http://www.w3.org/2000/svg" width="15" height="15" viewBox="0 0 15 15"><g fill-rule="evenodd" clip-rule="evenodd"><path d="M5.68 4.435c-.06.062-.096.102-.125.134.052-.058.125-.134.125-.134zm0 0"/><path d="M8.241 4.91c.19.237.285.515.285.835 0 .23-.065.45-.196.662-.072.122-.164.24-.282.351l-.393.386c-.38.374-.622.701-.734.986-.112.289-.167.666-.167 1.135h.875c0-.413.049-.725.141-.937.091-.21.298-.469.612-.773.433-.419.721-.737.862-.954.141-.216.213-.498.213-.845 0-.573-.194-1.045-.584-1.412-.386-.371-.904-.555-1.549-.555-.698 0-1.245.216-1.645.646-.4.433-.6.999-.6 1.707h.875c.013-.426.081-.75.2-.976.21-.406.586-.61 1.137-.61.443 0 .757.118.95.354zm0 0"/><path d="M14.876 7.446a7.383 7.383 0 0 0-14.764 0 7.383 7.383 0 0 0 14.764 0zm-14.091 0a6.71 6.71 0 1 1 13.42 0 6.71 6.71 0 0 1-13.42 0zm0 0"/><path d="M6.74 10.08h.98v1.02h-.98z"/></g></svg>