<svg xmlns="http://www.w3.org/2000/svg" width="18" height="18" viewBox="0 0 18 18"><path d="M17.239 15.359l-3.564-3.564a7.117 7.117 0 0 0 1.288-4.146c0-.991-.192-1.938-.577-2.842a7.322 7.322 0 0 0-1.559-2.338A7.306 7.306 0 0 0 10.489.91C9.587.526 8.639.333 7.649.333S5.711.526 4.807.91a7.295 7.295 0 0 0-2.338 1.559A7.295 7.295 0 0 0 .91 4.807a7.195 7.195 0 0 0-.577 2.842c0 .991.192 1.937.577 2.842a7.306 7.306 0 0 0 1.559 2.338 7.311 7.311 0 0 0 2.338 1.559 7.195 7.195 0 0 0 2.842.577c1.524 0 2.906-.43 4.146-1.289l3.564 3.554c.249.263.561.395.935.395.361 0 .673-.132.935-.395.264-.263.395-.575.395-.935 0-.368-.128-.68-.385-.936zm-6.302-4.422c-.911.911-2.007 1.366-3.289 1.366s-2.378-.456-3.289-1.366c-.91-.911-1.365-2.007-1.365-3.288S3.449 5.27 4.36 4.36c.911-.911 2.007-1.366 3.289-1.366s2.378.455 3.289 1.366c.911.91 1.367 2.007 1.367 3.289s-.457 2.377-1.368 3.288zm0 0"/></svg>