<svg xmlns="http://www.w3.org/2000/svg" width="27" height="29" viewBox="0 0 27 29"><path d="M1.125 13.166a.475.475 0 0 0 .493-.457A11.88 11.88 0 0 1 13.027 1.278v1.886a.476.476 0 1 0 .952 0V1.278A11.866 11.866 0 0 1 25.38 12.679h-1.41a.476.476 0 1 0 0 .952h1.41A11.873 11.873 0 0 1 14.2 25.026l1.855-1.855a.476.476 0 0 0-.673-.673l-2.656 2.656a.478.478 0 0 0-.137.187.592.592 0 0 0-.014.057.437.437 0 0 0-.024.101v.027c.003.036.01.072.021.107.002.02.006.039.011.058.023.064.06.123.108.172l2.691 2.692a.476.476 0 0 0 .673-.673l-1.9-1.902c6.819-.34 12.177-5.963 12.187-12.79 0-.012.007-.022.007-.034s-.006-.022-.007-.034C26.332 6.054 20.605.327 13.537.317c-.012 0-.022-.007-.034-.007s-.022.006-.034.007C6.576.329.923 5.784.667 12.673v.018c0 .255.202.465.458.475z"/><path d="M13.166 13.491a.487.487 0 0 1 0-.673.476.476 0 1 1 0 .673c.001.001.001.001 0 0z"/><g fill-rule="evenodd" clip-rule="evenodd"><path d="M13.584 4.063h-.231a.353.353 0 0 0-.353.353v7.512c0 .195.158.353.353.353h.231a.353.353 0 0 0 .353-.353V4.416a.352.352 0 0 0-.353-.353zm-2.779 8.906H5.07a.29.29 0 0 0-.289.289v.204a.29.29 0 0 0 .289.289h5.735a.29.29 0 0 0 .289-.289v-.204a.29.29 0 0 0-.289-.289z"/><ellipse cx="13.44" cy="13.47" rx="1.75" ry="1.69"/><ellipse cx="13.42" cy="13.42" fill="#FFF" rx=".8" ry=".73"/></g></svg>