<svg xmlns="http://www.w3.org/2000/svg" width="31" height="28" viewBox="0 0 31 28"><defs><style>.cls-1{fill-rule:evenodd}</style></defs><path id="Forma_1" d="M14.951 15.714a7.952 7.952 0 0 0 8.03-7.869A7.932 7.932 0 0 0 14.951 0a7.947 7.947 0 0 0-8.03 7.845 7.967 7.967 0 0 0 8.03 7.869zm0-13.662a5.87 5.87 0 0 1 5.911 5.793 5.913 5.913 0 0 1-11.823 0 5.87 5.87 0 0 1 5.912-5.793zM1.059 28h27.882A1.041 1.041 0 0 0 30 26.962a9.987 9.987 0 0 0-10.074-9.872h-9.852A9.987 9.987 0 0 0 0 26.962 1.041 1.041 0 0 0 1.059 28zm9.015-8.834h9.852a7.9 7.9 0 0 1 7.882 6.759H2.192a7.919 7.919 0 0 1 7.882-6.759z" class="cls-1"/></svg>