<svg xmlns="http://www.w3.org/2000/svg" width="27" height="27" viewBox="0 0 27 27"><path d="M25.348 6.603l-.008-.03c-.621-2.512-3.422-5.207-5.995-5.768l-.029-.006a33.3 33.3 0 0 0-12.539 0l-.03.006c-2.57.561-5.371 3.256-5.993 5.768l-.007.03a24.548 24.548 0 0 0 0 10.573l.007.031c.595 2.404 3.188 4.976 5.664 5.683v2.804c0 1.015 1.237 1.513 1.94.781l2.841-2.953c.616.035 1.233.054 1.849.054 2.094 0 4.19-.198 6.27-.595l.029-.006c2.572-.561 5.373-3.256 5.995-5.767l.008-.031a24.583 24.583 0 0 0-.002-10.574zM23.1 16.667c-.415 1.639-2.542 3.676-4.231 4.052a31.008 31.008 0 0 1-6.669.539.16.16 0 0 0-.118.048l-2.074 2.129-2.206 2.264a.258.258 0 0 1-.445-.178v-4.644a.16.16 0 0 0-.13-.157h-.002c-1.69-.376-3.816-2.414-4.231-4.052a22.28 22.28 0 0 1 0-9.555c.415-1.64 2.541-3.677 4.231-4.053a31.02 31.02 0 0 1 11.644 0c1.691.376 3.817 2.414 4.231 4.052.692 3.17.692 6.384 0 9.555zm0 0"/><path d="M16.723 18.811c-.26-.079-.508-.132-.737-.227-2.383-.988-4.575-2.264-6.312-4.218-.988-1.112-1.761-2.367-2.415-3.695-.31-.63-.571-1.284-.837-1.934-.242-.594.115-1.207.492-1.654.353-.419.808-.74 1.3-.977.384-.185.763-.078 1.044.248.607.704 1.164 1.444 1.615 2.26.278.502.202 1.116-.301 1.457-.122.083-.234.181-.348.274-.1.082-.194.165-.262.277a.756.756 0 0 0-.05.665c.62 1.704 1.665 3.03 3.38 3.743.275.114.55.247.866.21.53-.062.701-.643 1.072-.946.363-.296.826-.3 1.217-.053.391.247.77.513 1.146.781.37.263.738.521 1.079.821.328.289.441.668.256 1.059-.338.718-.83 1.314-1.539 1.696-.201.109-.44.143-.666.213-.26-.079.226-.07 0 0zM13.054 5.286c3.116.087 5.676 2.156 6.224 5.237.093.525.127 1.062.168 1.594.017.224-.109.437-.351.44-.25.003-.362-.206-.378-.43-.032-.443-.054-.889-.116-1.328-.322-2.322-2.174-4.242-4.484-4.654-.348-.062-.704-.078-1.056-.115-.223-.023-.514-.037-.563-.313-.042-.232.154-.417.375-.429.06-.005.12-.002.181-.002 3.116.088-.061 0 0 0zm0 0"/><path d="M17.79 11.426c-.005.039-.008.13-.03.217-.083.313-.557.352-.666.036a.947.947 0 0 1-.038-.301c-.001-.66-.145-1.319-.477-1.894a3.53 3.53 0 0 0-1.478-1.387 4.268 4.268 0 0 0-1.178-.362c-.178-.029-.357-.047-.535-.072-.216-.03-.332-.167-.322-.381.01-.2.155-.343.373-.331.715.04 1.406.195 2.042.532 1.293.685 2.032 1.766 2.247 3.209.01.065.025.13.03.196.012.162.019.324.032.538-.006.038-.013-.214 0 0zm0 0"/><path d="M15.851 11.35c-.261.005-.4-.14-.427-.379-.019-.167-.033-.336-.073-.498a1.394 1.394 0 0 0-.517-.811 1.345 1.345 0 0 0-.421-.203c-.191-.055-.39-.04-.581-.087-.207-.05-.322-.218-.289-.413a.375.375 0 0 1 .395-.301c1.208.087 2.072.712 2.195 2.134.009.1.019.206-.003.302-.038.166-.16.248-.279.256-.261.005.119-.008 0 0zm0 0"/></svg>