<svg xmlns="http://www.w3.org/2000/svg" width="34" height="20" viewBox="0 0 34 20"><path d="M32.31 15.249c-.729-.875-1.557-1.659-2.357-2.417-.285-.27-.579-.548-.863-.826-.814-.797-.844-1.096-.199-2 .446-.623.92-1.248 1.377-1.852.415-.548.844-1.114 1.256-1.683l.085-.117c.786-1.088 1.599-2.213 2.032-3.57.112-.358.23-.885-.04-1.325-.269-.44-.792-.574-1.163-.637a3.183 3.183 0 0 0-.533-.036L26.756.782h-.043c-.779 0-1.303.367-1.604 1.122a30.977 30.977 0 0 1-.962 2.22c-.716 1.454-1.625 3.129-2.941 4.526l-.056.059c-.155.167-.331.356-.46.356a.215.215 0 0 1-.066-.012c-.273-.106-.455-.766-.447-1.073v-.013l-.004-5.951a.418.418 0 0 0-.005-.061C20.037.988 19.747.385 18.651.17a.44.44 0 0 0-.089-.009H13.21c-.872 0-1.353.354-1.804.885-.122.142-.376.437-.25.796.128.363.542.441.677.466.67.127 1.047.537 1.155 1.253.187 1.243.21 2.57.072 4.175-.038.447-.114.791-.239 1.086-.029.069-.132.293-.237.293-.033 0-.13-.013-.305-.134-.415-.284-.719-.69-1.073-1.192C10 6.087 8.988 4.211 8.112 2.053 7.787 1.259 7.181.814 6.403.801 5.548.788 4.774.781 4.035.781c-.807 0-1.556.008-2.286.023-.626.011-1.059.199-1.286.558-.228.359-.213.832.044 1.403 2.06 4.58 3.928 7.91 6.057 10.798 1.491 2.02 2.988 3.419 4.708 4.401 1.812 1.037 3.843 1.54 6.208 1.54.268 0 .546-.006.825-.019 1.374-.067 1.885-.564 1.949-1.903.031-.684.106-1.401.442-2.013.212-.385.41-.385.475-.385.125 0 .28.058.447.165.299.195.556.457.766.686.198.217.394.437.589.656.423.474.86.963 1.317 1.427.999 1.017 2.101 1.464 3.365 1.367h4.721l.03-.001c.47-.031.878-.292 1.118-.716.297-.525.291-1.195-.016-1.792-.349-.675-.802-1.252-1.198-1.727zm0 0"/></svg>