<svg xmlns="http://www.w3.org/2000/svg" width="28" height="28" viewBox="0 0 28 28"><path fill-rule="evenodd" d="M27.802 13.645c0 7.425-6.067 13.446-13.551 13.446-2.377 0-4.61-.607-6.551-1.673L.197 27.802l2.446-7.214A13.304 13.304 0 0 1 .7 13.645C.7 6.218 6.767.198 14.252.198c7.483 0 13.55 6.02 13.55 13.447zM14.251 2.34c-6.283 0-11.393 5.07-11.393 11.305 0 2.472.805 4.764 2.17 6.628l-1.423 4.198 4.378-1.391a11.393 11.393 0 0 0 6.269 1.869c6.281 0 11.392-5.071 11.392-11.304 0-6.235-5.111-11.305-11.393-11.305zm6.843 14.402c-.084-.138-.306-.22-.636-.385-.332-.164-1.966-.963-2.27-1.072-.304-.11-.527-.165-.747.164-.222.33-.858 1.072-1.053 1.292-.193.22-.386.247-.719.082-.333-.164-1.404-.514-2.672-1.635-.987-.875-1.654-1.953-1.848-2.283-.193-.329-.019-.508.145-.672.15-.148.333-.385.499-.577.166-.193.222-.331.332-.551.111-.22.056-.412-.028-.577-.082-.164-.747-1.787-1.024-2.447-.275-.659-.552-.549-.747-.549-.193 0-.415-.027-.636-.027a1.22 1.22 0 0 0-.885.412c-.304.329-1.162 1.128-1.162 2.748 0 1.622 1.189 3.19 1.355 3.408.166.22 2.297 3.657 5.675 4.977 3.377 1.319 3.377.879 3.987.824.608-.054 1.965-.797 2.242-1.567.275-.768.275-1.428.192-1.565zm0 0" clip-rule="evenodd"/></svg>