<svg xmlns="http://www.w3.org/2000/svg" xmlns:xlink="http://www.w3.org/1999/xlink"><symbol id="time" viewBox="0 0 27 29"><path d="M1.125 13.166a.475.475 0 0 0 .493-.457A11.88 11.88 0 0 1 13.027 1.278v1.886a.476.476 0 1 0 .952 0V1.278A11.866 11.866 0 0 1 25.38 12.679h-1.41a.476.476 0 1 0 0 .952h1.41A11.873 11.873 0 0 1 14.2 25.026l1.855-1.855a.476.476 0 0 0-.673-.673l-2.656 2.656a.478.478 0 0 0-.137.187.592.592 0 0 0-.014.057.437.437 0 0 0-.024.101v.027c.003.036.01.072.021.107.002.02.006.039.011.058.023.064.06.123.108.172l2.691 2.692a.476.476 0 0 0 .673-.673l-1.9-1.902c6.819-.34 12.177-5.963 12.187-12.79 0-.012.007-.022.007-.034s-.006-.022-.007-.034C26.332 6.054 20.605.327 13.537.317c-.012 0-.022-.007-.034-.007s-.022.006-.034.007C6.576.329.923 5.784.667 12.673v.018c0 .255.202.465.458.475z"/><path d="M13.166 13.491a.487.487 0 0 1 0-.673.476.476 0 1 1 0 .673c.001.001.001.001 0 0z"/><g fill-rule="evenodd" clip-rule="evenodd"><path d="M13.584 4.063h-.231a.353.353 0 0 0-.353.353v7.512c0 .195.158.353.353.353h.231a.353.353 0 0 0 .353-.353V4.416a.352.352 0 0 0-.353-.353zm-2.779 8.906H5.07a.29.29 0 0 0-.289.289v.204a.29.29 0 0 0 .289.289h5.735a.29.29 0 0 0 .289-.289v-.204a.29.29 0 0 0-.289-.289z"/><ellipse cx="13.44" cy="13.47" rx="1.75" ry="1.69"/><ellipse cx="13.42" cy="13.42" fill="#FFF" rx=".8" ry=".73"/></g></symbol><symbol id="user" viewBox="0 0 31 28"><defs><style>.cls-1{fill-rule:evenodd}</style></defs><path id="Forma_1" d="M14.951 15.714a7.952 7.952 0 0 0 8.03-7.869A7.932 7.932 0 0 0 14.951 0a7.947 7.947 0 0 0-8.03 7.845 7.967 7.967 0 0 0 8.03 7.869zm0-13.662a5.87 5.87 0 0 1 5.911 5.793 5.913 5.913 0 0 1-11.823 0 5.87 5.87 0 0 1 5.912-5.793zM1.059 28h27.882A1.041 1.041 0 0 0 30 26.962a9.987 9.987 0 0 0-10.074-9.872h-9.852A9.987 9.987 0 0 0 0 26.962 1.041 1.041 0 0 0 1.059 28zm9.015-8.834h9.852a7.9 7.9 0 0 1 7.882 6.759H2.192a7.919 7.919 0 0 1 7.882-6.759z" class="cls-1"/></symbol><symbol id="viber" viewBox="0 0 27 27"><path d="M25.348 6.603l-.008-.03c-.621-2.512-3.422-5.207-5.995-5.768l-.029-.006a33.3 33.3 0 0 0-12.539 0l-.03.006c-2.57.561-5.371 3.256-5.993 5.768l-.007.03a24.548 24.548 0 0 0 0 10.573l.007.031c.595 2.404 3.188 4.976 5.664 5.683v2.804c0 1.015 1.237 1.513 1.94.781l2.841-2.953c.616.035 1.233.054 1.849.054 2.094 0 4.19-.198 6.27-.595l.029-.006c2.572-.561 5.373-3.256 5.995-5.767l.008-.031a24.583 24.583 0 0 0-.002-10.574zM23.1 16.667c-.415 1.639-2.542 3.676-4.231 4.052a31.008 31.008 0 0 1-6.669.539.16.16 0 0 0-.118.048l-2.074 2.129-2.206 2.264a.258.258 0 0 1-.445-.178v-4.644a.16.16 0 0 0-.13-.157h-.002c-1.69-.376-3.816-2.414-4.231-4.052a22.28 22.28 0 0 1 0-9.555c.415-1.64 2.541-3.677 4.231-4.053a31.02 31.02 0 0 1 11.644 0c1.691.376 3.817 2.414 4.231 4.052.692 3.17.692 6.384 0 9.555zm0 0"/><path d="M16.723 18.811c-.26-.079-.508-.132-.737-.227-2.383-.988-4.575-2.264-6.312-4.218-.988-1.112-1.761-2.367-2.415-3.695-.31-.63-.571-1.284-.837-1.934-.242-.594.115-1.207.492-1.654.353-.419.808-.74 1.3-.977.384-.185.763-.078 1.044.248.607.704 1.164 1.444 1.615 2.26.278.502.202 1.116-.301 1.457-.122.083-.234.181-.348.274-.1.082-.194.165-.262.277a.756.756 0 0 0-.05.665c.62 1.704 1.665 3.03 3.38 3.743.275.114.55.247.866.21.53-.062.701-.643 1.072-.946.363-.296.826-.3 1.217-.053.391.247.77.513 1.146.781.37.263.738.521 1.079.821.328.289.441.668.256 1.059-.338.718-.83 1.314-1.539 1.696-.201.109-.44.143-.666.213-.26-.079.226-.07 0 0zM13.054 5.286c3.116.087 5.676 2.156 6.224 5.237.093.525.127 1.062.168 1.594.017.224-.109.437-.351.44-.25.003-.362-.206-.378-.43-.032-.443-.054-.889-.116-1.328-.322-2.322-2.174-4.242-4.484-4.654-.348-.062-.704-.078-1.056-.115-.223-.023-.514-.037-.563-.313-.042-.232.154-.417.375-.429.06-.005.12-.002.181-.002 3.116.088-.061 0 0 0zm0 0"/><path d="M17.79 11.426c-.005.039-.008.13-.03.217-.083.313-.557.352-.666.036a.947.947 0 0 1-.038-.301c-.001-.66-.145-1.319-.477-1.894a3.53 3.53 0 0 0-1.478-1.387 4.268 4.268 0 0 0-1.178-.362c-.178-.029-.357-.047-.535-.072-.216-.03-.332-.167-.322-.381.01-.2.155-.343.373-.331.715.04 1.406.195 2.042.532 1.293.685 2.032 1.766 2.247 3.209.01.065.025.13.03.196.012.162.019.324.032.538-.006.038-.013-.214 0 0zm0 0"/><path d="M15.851 11.35c-.261.005-.4-.14-.427-.379-.019-.167-.033-.336-.073-.498a1.394 1.394 0 0 0-.517-.811 1.345 1.345 0 0 0-.421-.203c-.191-.055-.39-.04-.581-.087-.207-.05-.322-.218-.289-.413a.375.375 0 0 1 .395-.301c1.208.087 2.072.712 2.195 2.134.009.1.019.206-.003.302-.038.166-.16.248-.279.256-.261.005.119-.008 0 0zm0 0"/></symbol><symbol id="vk" viewBox="0 0 34 20"><path d="M32.31 15.249c-.729-.875-1.557-1.659-2.357-2.417-.285-.27-.579-.548-.863-.826-.814-.797-.844-1.096-.199-2 .446-.623.92-1.248 1.377-1.852.415-.548.844-1.114 1.256-1.683l.085-.117c.786-1.088 1.599-2.213 2.032-3.57.112-.358.23-.885-.04-1.325-.269-.44-.792-.574-1.163-.637a3.183 3.183 0 0 0-.533-.036L26.756.782h-.043c-.779 0-1.303.367-1.604 1.122a30.977 30.977 0 0 1-.962 2.22c-.716 1.454-1.625 3.129-2.941 4.526l-.056.059c-.155.167-.331.356-.46.356a.215.215 0 0 1-.066-.012c-.273-.106-.455-.766-.447-1.073v-.013l-.004-5.951a.418.418 0 0 0-.005-.061C20.037.988 19.747.385 18.651.17a.44.44 0 0 0-.089-.009H13.21c-.872 0-1.353.354-1.804.885-.122.142-.376.437-.25.796.128.363.542.441.677.466.67.127 1.047.537 1.155 1.253.187 1.243.21 2.57.072 4.175-.038.447-.114.791-.239 1.086-.029.069-.132.293-.237.293-.033 0-.13-.013-.305-.134-.415-.284-.719-.69-1.073-1.192C10 6.087 8.988 4.211 8.112 2.053 7.787 1.259 7.181.814 6.403.801 5.548.788 4.774.781 4.035.781c-.807 0-1.556.008-2.286.023-.626.011-1.059.199-1.286.558-.228.359-.213.832.044 1.403 2.06 4.58 3.928 7.91 6.057 10.798 1.491 2.02 2.988 3.419 4.708 4.401 1.812 1.037 3.843 1.54 6.208 1.54.268 0 .546-.006.825-.019 1.374-.067 1.885-.564 1.949-1.903.031-.684.106-1.401.442-2.013.212-.385.41-.385.475-.385.125 0 .28.058.447.165.299.195.556.457.766.686.198.217.394.437.589.656.423.474.86.963 1.317 1.427.999 1.017 2.101 1.464 3.365 1.367h4.721l.03-.001c.47-.031.878-.292 1.118-.716.297-.525.291-1.195-.016-1.792-.349-.675-.802-1.252-1.198-1.727zm0 0"/></symbol><symbol id="watsapp" viewBox="0 0 28 28"><path fill-rule="evenodd" d="M27.802 13.645c0 7.425-6.067 13.446-13.551 13.446-2.377 0-4.61-.607-6.551-1.673L.197 27.802l2.446-7.214A13.304 13.304 0 0 1 .7 13.645C.7 6.218 6.767.198 14.252.198c7.483 0 13.55 6.02 13.55 13.447zM14.251 2.34c-6.283 0-11.393 5.07-11.393 11.305 0 2.472.805 4.764 2.17 6.628l-1.423 4.198 4.378-1.391a11.393 11.393 0 0 0 6.269 1.869c6.281 0 11.392-5.071 11.392-11.304 0-6.235-5.111-11.305-11.393-11.305zm6.843 14.402c-.084-.138-.306-.22-.636-.385-.332-.164-1.966-.963-2.27-1.072-.304-.11-.527-.165-.747.164-.222.33-.858 1.072-1.053 1.292-.193.22-.386.247-.719.082-.333-.164-1.404-.514-2.672-1.635-.987-.875-1.654-1.953-1.848-2.283-.193-.329-.019-.508.145-.672.15-.148.333-.385.499-.577.166-.193.222-.331.332-.551.111-.22.056-.412-.028-.577-.082-.164-.747-1.787-1.024-2.447-.275-.659-.552-.549-.747-.549-.193 0-.415-.027-.636-.027a1.22 1.22 0 0 0-.885.412c-.304.329-1.162 1.128-1.162 2.748 0 1.622 1.189 3.19 1.355 3.408.166.22 2.297 3.657 5.675 4.977 3.377 1.319 3.377.879 3.987.824.608-.054 1.965-.797 2.242-1.567.275-.768.275-1.428.192-1.565zm0 0" clip-rule="evenodd"/></symbol><symbol id="arrow1-dn" viewBox="0 0 9 11"><path d="M3.631.777v7.206l-2.27-2.265c-.111-.111-.261-.172-.418-.172s-.307.061-.418.172l-.353.352A.585.585 0 0 0 0 6.486c0 .158.061.305.172.416l3.883 3.883a.585.585 0 0 0 .417.172c.159 0 .307-.06.418-.172l3.883-3.883a.585.585 0 0 0 .172-.416.583.583 0 0 0-.172-.416l-.353-.352a.585.585 0 0 0-.416-.172.565.565 0 0 0-.408.172L5.313 8.009V.786a.61.61 0 0 0-.604-.597H4.21c-.324 0-.582.281-.582.605"/></symbol><symbol id="arrow1-left" viewBox="0 0 11 9"><path d="M9.99 3.711H3.14l2.153-2.158c.105-.105.163-.248.163-.398S5.399.864 5.293.758L4.958.423a.558.558 0 0 0-.791 0L.476 4.114a.548.548 0 0 0-.163.396c0 .151.057.292.163.397l3.691 3.691a.557.557 0 0 0 .396.163c.15 0 .29-.058.395-.163l.335-.335a.556.556 0 0 0 .163-.395.538.538 0 0 0-.163-.388L3.115 5.31h6.866a.58.58 0 0 0 .568-.574v-.475c0-.308-.267-.553-.575-.553"/></symbol><symbol id="arrow1-right" viewBox="0 0 11 9"><path d="M.872 5.31h6.85L5.568 7.468a.561.561 0 0 0-.163.398c0 .15.058.292.163.397l.335.335a.557.557 0 0 0 .791.001l3.691-3.691a.552.552 0 0 0 .163-.397.553.553 0 0 0-.163-.397L6.695.423A.554.554 0 0 0 6.299.26c-.15 0-.29.058-.395.163l-.336.335a.556.556 0 0 0-.163.395c0 .15.058.283.163.388l2.178 2.17H.88a.58.58 0 0 0-.568.574v.475c0 .308.267.553.575.553"/></symbol><symbol id="arrow1-up" viewBox="0 0 9 11"><path d="M5.313 10.369V3.163l2.27 2.265a.59.59 0 0 0 .419.172.588.588 0 0 0 .418-.172l.353-.352a.588.588 0 0 0-.001-.832L4.89.36a.582.582 0 0 0-.417-.171.582.582 0 0 0-.418.172L.172 4.243A.585.585 0 0 0 0 4.66c0 .158.061.305.172.416l.353.352a.58.58 0 0 0 .823 0l2.283-2.291v7.223c0 .325.28.597.604.597h.499c.324 0 .582-.281.582-.605"/></symbol><symbol id="arrow2-dn" viewBox="0 0 15 9"><path d="M14.666 2.024c.153-.152.237-.356.237-.573s-.084-.42-.237-.573l-.485-.485a.81.81 0 0 0-1.145 0L7.503 5.926 1.965.388a.804.804 0 0 0-.573-.237.804.804 0 0 0-.573.237L.334.873c-.152.152-.236.356-.236.573s.084.42.237.573l6.594 6.594a.801.801 0 0 0 .574.236.806.806 0 0 0 .575-.236l6.588-6.589z"/></symbol><symbol id="arrow2-left" viewBox="0 0 9 15"><path d="M6.902 14.706c.152.153.356.237.573.237s.42-.084.573-.237l.485-.485a.81.81 0 0 0 0-1.145L3 7.543l5.539-5.539a.808.808 0 0 0 0-1.146L8.054.374C7.901.221 7.698.137 7.481.137s-.42.084-.573.237L.314 6.968a.801.801 0 0 0-.236.574c0 .218.083.422.236.575l6.588 6.589z"/></symbol><symbol id="arrow2-right" viewBox="0 0 9 15"><path d="M1.951.374C1.798.221 1.595.137 1.378.137S.958.221.805.374L.32.859a.81.81 0 0 0 0 1.145l5.532 5.532-5.539 5.539a.808.808 0 0 0 0 1.146l.485.485c.153.153.356.237.573.237s.42-.084.573-.237l6.594-6.594a.801.801 0 0 0 .236-.574.806.806 0 0 0-.236-.575L1.951.374z"/></symbol><symbol id="arrow2-up" viewBox="0 0 15 9"><path d="M.334 6.976c-.152.152-.236.355-.236.572s.084.42.237.573l.485.485a.81.81 0 0 0 1.145 0l5.532-5.532 5.539 5.539a.808.808 0 0 0 1.146 0l.485-.485c.153-.153.237-.356.237-.573s-.084-.42-.237-.573L8.072.387a.812.812 0 0 0-.575-.236.806.806 0 0 0-.575.236L.334 6.976z"/></symbol><symbol id="arrow-updn" viewBox="0 0 8 15"><path d="M4.001 2.372l2.644 2.649 1.159-1.159L4.001.059.197 3.863l1.159 1.159 2.645-2.65zm0 10.256L1.355 9.984.196 11.139 4 14.942l3.803-3.803-1.158-1.155-2.644 2.644zm0 0"/></symbol><symbol id="attach" viewBox="0 0 15 17"><defs><path id="a" d="M.14.36h14.68v16.06H.14z"/></defs><clipPath id="b"><use overflow="visible" xlink:href="#a"/></clipPath><path d="M6.836 7.524a.567.567 0 0 0-.801-.801L3.037 9.721a2.644 2.644 0 0 0-.788 1.893c0 .718.277 1.381.788 1.893a2.668 2.668 0 0 0 3.785 0l6.77-6.769a3.715 3.715 0 0 0 1.091-2.639c0-.995-.386-1.934-1.091-2.639a3.736 3.736 0 0 0-5.291 0L1.545 8.215a4.763 4.763 0 0 0-1.409 3.398c0 1.285.497 2.501 1.409 3.398a4.763 4.763 0 0 0 3.398 1.409c1.285 0 2.5-.497 3.398-1.409l2.998-2.998a.567.567 0 0 0-.801-.801L7.54 14.21c-.691.691-1.616 1.078-2.597 1.078s-1.906-.387-2.597-1.078c-.691-.691-1.078-1.616-1.078-2.597s.387-1.906 1.078-2.597l6.755-6.755c.497-.497 1.146-.759 1.837-.759s1.354.276 1.837.759c.497.497.76 1.147.76 1.837s-.277 1.354-.76 1.837l-6.769 6.769a1.56 1.56 0 0 1-2.183 0 1.537 1.537 0 0 1 0-2.182l3.013-2.998zm0 0" clip-path="url(#b)"/></symbol><symbol id="basket1" viewBox="0 0 31 28"><path d="M30.437 4.361c-.125-.125-.249-.249-.499-.249H6.244L5.62.87c0-.249-.374-.499-.624-.499H1.255C.881.371.631.62.631.995s.249.624.624.624h3.242L7.49 16.833c.374 1.995 2.245 3.492 4.24 3.492h14.341c.374 0 .624-.249.624-.624 0-.374-.249-.624-.624-.624H11.855c-.998 0-1.995-.499-2.494-1.372l18.207-2.494c.249 0 .499-.249.499-.499l2.494-9.976s0-.25-.124-.375zm-3.492 9.728L8.738 16.458 6.493 5.234h22.572l-2.12 8.855zm-15.713 7.482a3.088 3.088 0 0 0-3.118 3.118c0 1.746 1.372 3.118 3.118 3.118s3.118-1.372 3.118-3.118a3.088 3.088 0 0 0-3.118-3.118zm0 4.988c-.998 0-1.871-.873-1.871-1.871s.873-1.871 1.871-1.871 1.871.873 1.871 1.871c-.001.998-.873 1.871-1.871 1.871zm12.47-4.988a3.088 3.088 0 0 0-3.118 3.118 3.088 3.088 0 0 0 3.118 3.118 3.088 3.088 0 0 0 3.118-3.118 3.088 3.088 0 0 0-3.118-3.118zm0 4.988c-.998 0-1.871-.873-1.871-1.871s.873-1.871 1.871-1.871 1.871.873 1.871 1.871-.873 1.871-1.871 1.871z"/></symbol><symbol id="basket2" viewBox="0 0 31 28"><path d="M30.437 4.361c-.125-.125-.249-.249-.499-.249H6.244L5.62.87c0-.249-.374-.499-.624-.499H1.255C.881.371.631.62.631.995s.249.624.624.624h3.242L7.49 16.833c.374 1.995 2.245 3.492 4.24 3.492h14.341c.374 0 .624-.249.624-.624 0-.374-.249-.624-.624-.624H11.855c-.998 0-1.995-.499-2.494-1.372l18.207-2.494c.249 0 .499-.249.499-.499l2.494-9.976s0-.25-.124-.375zm-19.205 17.21a3.088 3.088 0 0 0-3.118 3.118c0 1.746 1.372 3.118 3.118 3.118s3.118-1.372 3.118-3.118a3.088 3.088 0 0 0-3.118-3.118zm0 4.988c-.998 0-1.871-.873-1.871-1.871s.873-1.871 1.871-1.871 1.871.873 1.871 1.871c-.001.998-.873 1.871-1.871 1.871zm12.47-4.988a3.088 3.088 0 0 0-3.118 3.118 3.088 3.088 0 0 0 3.118 3.118 3.088 3.088 0 0 0 3.118-3.118 3.088 3.088 0 0 0-3.118-3.118zm0 4.988c-.998 0-1.871-.873-1.871-1.871s.873-1.871 1.871-1.871 1.871.873 1.871 1.871-.873 1.871-1.871 1.871z"/></symbol><symbol id="check" viewBox="0 0 11 8"><path fill-rule="evenodd" d="M10.64.361a1.303 1.303 0 0 0-1.809 0L4.309 4.766a.33.33 0 0 1-.457 0l-1.67-1.627a1.303 1.303 0 0 0-1.809 0 1.224 1.224 0 0 0 0 1.762l2.803 2.73c.5.486 1.31.486 1.809 0l5.655-5.509c.24-.234.375-.551.375-.881 0-.33-.135-.647-.375-.88z" clip-rule="evenodd"/></symbol><symbol id="comments" viewBox="0 0 29 27"><path d="M25.177 6.138h-7.839V3.623c0-1.581-.856-3.266-3.266-3.266H4.045C2 .357.779 1.578.779 3.623v19.754c0 1.581.862 3.266 3.266 3.266h10.06c2.41 0 3.266-1.692 3.266-3.266V19.98l.542.653a.653.653 0 0 0 1.156-.425v-2.443h6.121a2.88 2.88 0 0 0 3.024-3.071V9.202a2.88 2.88 0 0 0-3.037-3.064zM2.085 3.623c0-.483 0-1.96 1.96-1.96h10.06a1.744 1.744 0 0 1 1.96 1.96v.732H2.085v-.732zm13.966 19.754a1.744 1.744 0 0 1-1.96 1.96H4.045a1.744 1.744 0 0 1-1.96-1.96v-1.195h13.966v1.195zm0-2.502H2.085V5.661h13.966v.503h-1.502a2.881 2.881 0 0 0-3.07 3.063v5.494a2.88 2.88 0 0 0 3.07 3.064h.954l.555.653-.007 2.437zm10.857-6.18a1.58 1.58 0 0 1-1.764 1.757h-6.728a.653.653 0 0 0-.653.653v1.306l-1.444-1.725a.655.655 0 0 0-.503-.235h-1.274a1.58 1.58 0 0 1-1.764-1.758V9.202a1.58 1.58 0 0 1 1.764-1.757h10.635a1.58 1.58 0 0 1 1.731 1.758v5.492z"/><path d="M7.383 24.318h3.345a.653.653 0 1 0 0-1.306H7.383a.653.653 0 1 0 0 1.306z"/></symbol><symbol id="cross1" viewBox="0 0 17 17"><path d="M.851 16.816a.672.672 0 0 1-.475-1.148L15.674.37a.672.672 0 1 1 .951.951L1.326 16.619a.67.67 0 0 1-.475.197z"/><path d="M16.149 16.816a.67.67 0 0 1-.475-.197L.376 1.321A.672.672 0 1 1 1.327.37l15.298 15.298a.672.672 0 0 1-.476 1.148z"/></symbol><symbol id="cross2" viewBox="0 0 11 11"><path fill-rule="evenodd" d="M7.663 5.66a.228.228 0 0 1 0-.321l3.27-3.27a.227.227 0 0 0 0-.32L9.251.066a.227.227 0 0 0-.32 0l-3.27 3.27a.228.228 0 0 1-.321 0L2.07.066a.228.228 0 0 0-.321 0L.066 1.748a.228.228 0 0 0 0 .321l3.271 3.27a.228.228 0 0 1 0 .321L.066 8.93a.227.227 0 0 0 0 .32l1.683 1.683a.227.227 0 0 0 .32 0l3.27-3.27a.228.228 0 0 1 .321 0l3.27 3.27a.227.227 0 0 0 .32 0l1.683-1.683a.227.227 0 0 0 0-.32l-3.27-3.27z" clip-rule="evenodd"/></symbol><symbol id="eye" viewBox="0 0 16 12"><path fill-rule="evenodd" d="M8 3.333a2.667 2.667 0 1 0 0 5.334 2.667 2.667 0 0 0 0-5.334zm0 4A1.335 1.335 0 0 1 6.666 6c0-.735.598-1.333 1.333-1.333S9.332 5.265 9.332 6A1.333 1.333 0 0 1 8 7.333zM8 0C2.666 0 0 6.028 0 6.028S2.667 12 8 12s8-6 8-6-2.667-6-8-6zm0 10.666c-3.525 0-5.75-3.313-6.499-4.642C2.25 4.683 4.475 1.333 8 1.333c3.525 0 5.75 3.333 6.499 4.667-.75 1.336-2.975 4.666-6.499 4.666z" clip-rule="evenodd"/></symbol><symbol id="finger" viewBox="0 0 44 43"><defs><style>.cls-1{fill-rule:evenodd}</style></defs><path id="Forma_1" d="M43.7 4.249L39.776.38a1.036 1.036 0 0 0-1.45 0 1 1 0 0 0 0 1.429l2.083 2.052h-9.827a1.01 1.01 0 1 0 0 2.021H40.6l-2.173 2.137a1 1 0 0 0 0 1.429 1.036 1.036 0 0 0 1.45 0l3.823-3.77a1 1 0 0 0 0-1.429zM40.134 16.2a6.936 6.936 0 0 0-3.094-1.083 5.69 5.69 0 0 0-4.65-2.312 6.984 6.984 0 0 0-1.256.116 5.74 5.74 0 0 0-4.382-1.944h-.1l-.008-6.2A4.674 4.674 0 0 0 25.082 1.2a5.1 5.1 0 0 0-6.777.186 4.654 4.654 0 0 0-1.366 3.4l.011 8.954.007 5.683a5.156 5.156 0 0 0-2.609 3.157c-.64 2.145-.13 4.908 1.56 8.446A40.993 40.993 0 0 0 19 36.325l.283 3.716A3.241 3.241 0 0 0 22.516 43l13.441-.016a3.24 3.24 0 0 0 3.215-2.784l.522-3.917a20.741 20.741 0 0 0 3.459-15.1 7.112 7.112 0 0 0-3.019-4.983zm-2.265 19.14a1.174 1.174 0 0 0-.184.488l-.547 4.107a1.159 1.159 0 0 1-1.184.989l-13.437-.02a1.158 1.158 0 0 1-1.192-1.054l-.3-3.924a1.135 1.135 0 0 0-.207-.57c-1.23-1.761-8.1-12.031-2.536-14.322a1.167 1.167 0 0 0 .729-1.08c0-2.8-.015-12.081-.019-15.172a2.675 2.675 0 0 1 2.8-2.766 2.675 2.675 0 0 1 2.8 2.76l.015 7.124a1.186 1.186 0 0 0 1.193 1.177 1.219 1.219 0 0 0 .188-.014 5 5 0 0 1 .764-.063 3.669 3.669 0 0 1 3.089 1.565 1.178 1.178 0 0 0 .955.473 1.248 1.248 0 0 0 .315-.038 5.122 5.122 0 0 1 1.279-.171 3.659 3.659 0 0 1 3.215 1.8 1.04 1.04 0 0 0 .839.476c1.212.043 4.025.566 4.685 4.416.614 3.566.332 8.353-3.26 13.823zM.293 5.471l3.83 3.858a1 1 0 0 0 1.414 0 1.013 1.013 0 0 0 0-1.425L3.506 5.858h9.584a1.008 1.008 0 0 0 0-2.015H3.323l2.115-2.131a1.012 1.012 0 0 0 0-1.425.995.995 0 0 0-1.414 0L.293 4.046a1.013 1.013 0 0 0 0 1.425z" class="cls-1"/></symbol><symbol id="gamburg" viewBox="0 0 24 22"><defs><style>.cls-1{fill-rule:evenodd}</style></defs><path id="Forma_1" d="M2.006 4.019h19.988a2.01 2.01 0 0 0 0-4.019H2.006a2.01 2.01 0 0 0 0 4.019zM21.994 8.99H2.006a2.01 2.01 0 0 0 0 4.019h19.988a2.01 2.01 0 0 0 0-4.019zm0 8.992H2.006a2.01 2.01 0 0 0 0 4.019h19.988a2.01 2.01 0 0 0 0-4.019z" class="cls-1"/></symbol><symbol id="heart1" viewBox="0 0 26 23"><path d="M25.442 6.223C24.727 2.624 22.169.304 18.873.304c-1.843 0-3.838.759-5.789 2.189C11.111 1.02 9.116.26 7.252.26 3.956.26 1.375 2.602.682 6.244-.359 11.643 2.98 18.82 12.758 22.722a.883.883 0 0 0 .326.066.862.862 0 0 0 .325-.066c9.757-3.989 13.074-11.143 12.033-16.499zM13.084 20.944C4.499 17.388 1.528 11.188 2.416 6.57c.521-2.754 2.429-4.553 4.836-4.553 1.626 0 3.447.78 5.268 2.276.325.26.78.26 1.106 0 1.821-1.452 3.621-2.212 5.247-2.212 2.406 0 4.293 1.756 4.835 4.489.889 4.574-2.06 10.754-10.624 14.374zm0 0"/></symbol><symbol id="heart2" viewBox="0 0 26 23"><path d="M25.442 6.223C24.727 2.624 22.169.304 18.873.304c-1.843 0-3.838.759-5.789 2.189C11.111 1.02 9.116.26 7.252.26 3.956.26 1.375 2.602.682 6.244-.359 11.643 2.98 18.82 12.758 22.722a.883.883 0 0 0 .326.066.862.862 0 0 0 .325-.066c9.757-3.989 13.074-11.143 12.033-16.499zM13.084 20.944"/></symbol><symbol id="insta" viewBox="0 0 27 27"><path d="M18.563 0H8.438A8.438 8.438 0 0 0 0 8.438v10.125A8.438 8.438 0 0 0 8.438 27h10.125A8.438 8.438 0 0 0 27 18.563V8.438A8.438 8.438 0 0 0 18.563 0zm5.906 18.563a5.912 5.912 0 0 1-5.906 5.906H8.438a5.912 5.912 0 0 1-5.906-5.906V8.438a5.912 5.912 0 0 1 5.906-5.906h10.125a5.912 5.912 0 0 1 5.906 5.906v10.125z"/><path d="M13.5 6.75a6.75 6.75 0 1 0 0 13.5 6.75 6.75 0 0 0 0-13.5zm0 10.969A4.225 4.225 0 0 1 9.281 13.5c0-2.327 1.893-4.219 4.219-4.219s4.219 1.892 4.219 4.219a4.226 4.226 0 0 1-4.219 4.219z"/><circle cx="20.76" cy="6.24" r=".9"/></symbol><symbol id="logo1" viewBox="0 0 30 14"><path fill-rule="evenodd" d="M18.21 11.079v1.026h-1.054v-1.568c.25-.007.18-.101.562-.101.414 0 .134.18.334.229.039.01.096.005.158-.006v.42zM4.217 1.621c-.03.791-.044 1.545-.044 2.266 0 .905.014 1.761.044 2.569h-.665c.026-.693.04-1.506.04-2.439 0-.741-.005-1.383-.015-1.927h-.891c-.02.115-.053.267-.101.455-.048.186-.108.393-.178.619-.072.227-.152.465-.243.717a11.462 11.462 0 0 1-.627 1.448 5.212 5.212 0 0 1-.36.596 2.244 2.244 0 0 1-.374.419.674.674 0 0 1-.376.175L.389 5.85c.065-.014.139-.068.223-.161.083-.092.171-.213.265-.363.093-.148.19-.319.288-.513.099-.195.196-.402.291-.621.095-.219.187-.445.276-.677.09-.233.17-.463.243-.687.072-.225.133-.441.185-.648.052-.207.09-.393.115-.559h1.942zm4.289 4.274l-.022.56h-2.91a59.434 59.434 0 0 0 0-4.835h2.729l-.03.554A48.06 48.06 0 0 0 6.17 2.13c.015.384.022.902.022 1.555.639 0 1.21-.014 1.71-.044v.554a39.884 39.884 0 0 0-1.71-.034c0 .636.011 1.233.032 1.791.8 0 1.56-.02 2.282-.057zm3.689-4.274l-.022.584a75.864 75.864 0 0 0-2.163-.038c.027.483.041 1.147.041 1.993 0 1.031.013 1.795.043 2.295h-.672c.029-.599.043-1.364.043-2.295 0-1.081-.015-1.928-.043-2.54h2.773zm4.28 4.835h-.746a3.155 3.155 0 0 1-.105-.319c-.196-.79-.402-1.303-.62-1.541-.218-.237-.563-.356-1.037-.356-.144 0-.255.004-.333.012 0 .8.012 1.535.037 2.205h-.679c.033-.768.051-1.613.051-2.54 0-.871-.017-1.636-.051-2.295h.679a63.424 63.424 0 0 0-.037 2.132c.118.008.229.012.333.012.409 0 .748-.138 1.018-.415.27-.278.466-.757.589-1.437a.726.726 0 0 1 .104-.29h.621c-.026.07-.07.205-.133.405-.153.567-.322.988-.505 1.264a1.74 1.74 0 0 1-.687.618v.041c.306.111.541.284.704.514.164.232.378.748.643 1.546.029.09.081.238.154.444zm4.603 0h-.686c.034-.46.05-1.148.05-2.065 0-.421.008-.956.022-1.604h-.037c-.084.248-.534.881-1.349 1.898-.76.948-1.141 1.537-1.141 1.771h-.505c.041-.656.062-1.421.062-2.295 0-.888-.021-1.735-.062-2.54h.679c-.034.669-.05 1.42-.05 2.251 0 .426-.011.899-.033 1.419h.04c.098-.247.56-.877 1.383-1.89.746-.919 1.119-1.512 1.119-1.779h.508a58.507 58.507 0 0 0-.054 2.54c0 .873.019 1.637.054 2.294zm5.004 0h-.686c.034-.46.05-1.148.05-2.065 0-.421.007-.956.022-1.604h-.037c-.084.248-.534.881-1.349 1.898-.76.948-1.141 1.537-1.141 1.771h-.505a37.38 37.38 0 0 0 .061-2.295c0-.888-.021-1.735-.061-2.54h.679c-.035.669-.051 1.42-.051 2.251 0 .426-.011.899-.033 1.419h.039c.099-.247.561-.877 1.384-1.89.745-.919 1.119-1.512 1.119-1.779h.509a56.958 56.958 0 0 0-.054 2.54c0 .873.019 1.637.054 2.294zM25.408.258c0 .272-.084.518-.251.738-.168.219-.453.328-.857.328-.418 0-.713-.11-.884-.332A1.185 1.185 0 0 1 23.16.25l.519-.07c0 .494.207.742.621.742.244 0 .408-.064.495-.191.086-.128.129-.311.129-.551l.484.078zm-9.307 10.476c-.364-.175-.779-.014-.801.182.193-.092.249-.109.437-.109.288 0 .083.145.218.145.069 0 .23-.027.278-.055.083-.047.08-.012.057-.136-.026-.138.215-.173.392-.173-.06-.086.028-.073-.291-.073-.187 0-.226.097-.29.219zm11.997-7.217V2.112h.616c.124 0 .218.013.283.038a.305.305 0 0 1 .154.133.397.397 0 0 1 .058.212.359.359 0 0 1-.095.252.486.486 0 0 1-.295.13.445.445 0 0 1 .111.07c.054.05.105.112.152.187l.24.383h-.23l-.184-.292a2.554 2.554 0 0 0-.132-.194.432.432 0 0 0-.093-.094.284.284 0 0 0-.084-.037.584.584 0 0 0-.102-.007h-.213v.624h-.186zm.185-.785h.394c.084 0 .15-.009.197-.027a.202.202 0 0 0 .107-.084.224.224 0 0 0 .037-.126.21.21 0 0 0-.071-.164c-.048-.043-.123-.064-.225-.064h-.439v.465zm.42-1.054c.31 0 .591.127.795.333a1.141 1.141 0 0 1 0 1.607 1.112 1.112 0 0 1-1.59 0c-.203-.205-.329-.49-.329-.804s.126-.598.329-.803a1.12 1.12 0 0 1 .795-.333zm.708.422a.992.992 0 0 0-1.416 0 1.014 1.014 0 0 0-.293.715c0 .279.112.532.293.715a.994.994 0 0 0 1.416 0c.181-.183.293-.436.293-.715 0-.279-.112-.533-.293-.715zM17.156 7.815v-.746h2.28c.207 0 .414.031.607.108-.113.036-.156.129-.218.24-.426-.227-.925-.045-.957.193.232-.106.299-.124.522-.117.342.01.093.181.254.185a1.04 1.04 0 0 0 .332-.057c.1-.054.095-.012.073-.164-.015-.1.078-.153.2-.178.122.073.232.165.327.275.133.156.227.339.287.537.062.206.09.42.09.635 0 .444-.051.868-.353 1.213-.275.313-.745.453-1.165.453h-.941l.023-.038c.039-.069.063-.08.131-.112.118-.055.257-.045.417-.045v-.068c-.463-.039-.544-.139-.789.237-.244-.059-.405-.291-1.022.031-.063.033-.086.033-.099.049V7.815zm1.054.887v.654h1.124c.146 0 .332-.023.429-.15a.559.559 0 0 0 .03-.043c.079.043-.019.131.089.131.073 0 .243-.03.294-.058.088-.05.085-.013.061-.144-.02-.111.121-.158.272-.175h.036l-.001-.003c.037-.003.074-.004.109-.004-.063-.091.029-.077-.309-.077a.343.343 0 0 0-.136.023c-.108.023-.14.101-.189.196a.65.65 0 0 0-.153-.054c.024-.086.033-.178.033-.268a.702.702 0 0 0-.148-.465c-.106-.127-.26-.161-.416-.161h-1.124l-.001.598zm5.076-1.165c-.72-.392-.943-.399-1.679-.16-.18.059-.573.161-.646.366.156.135.451-.123.761-.123.337 0 .857-.069 1.082.247h-.16c.03.363.328.201.568.171.301-.037.538-.062.675-.254-.071-.099-.08-.11-.24-.123.401-.615.607-.453 1.242-.453v-.125c-.163-.003-1.113-.247-1.371.074l-.232.38zm2.364.165c-.401-.198-.858-.016-.882.206.213-.105.274-.124.481-.124.317 0 .092.165.241.165a.935.935 0 0 0 .306-.062c.091-.053.088-.014.063-.154-.028-.157.237-.196.432-.196-.066-.098.031-.082-.321-.082-.206 0-.249.109-.32.247zm-2.124 1.607c-.297-.071-.493-.354-1.246.038-.139.072-.118.017-.157.168.348 0 .238-.123.722-.123.505 0 .164.219.407.279.155.038.536-.102.635-.156v-.123c-.147-.013-.133.016-.067-.098.048-.084.077-.098.16-.136.143-.066.314-.054.508-.054v-.083c-.565-.048-.663-.17-.962.288zm-3.553 1.51c.09-.001.401.039.488.086l.012.007.013.007.012.008.012.008.011.008.011.009.011.009.01.01.01.01.01.011.009.011.009.012.009.012h-.132l.001.014.001.013.002.013.002.012.002.012.003.011.003.01.007.018.004.008.004.008.004.008.005.007.005.006.005.006.005.006.006.005.005.005.006.004.006.004.006.003.007.003.007.003.015.005.007.002.007.001.008.001.008.001.025.001h.034l.017-.002.009-.001.028-.004.009-.002.009-.001.01-.002.009-.002.019-.004.009-.002.01-.002.019-.004.01-.002.009-.002.009-.002.029-.006.009-.002.01-.001.009-.002.01-.001.009-.001.009-.001.023-.003.011-.001.011-.001.012-.001.011-.001.011-.001.011-.001.011-.001.043-.006.011-.001.02-.003.01-.002.01-.001.03-.005.029-.006.009-.002.019-.004.009-.002.009-.002.009-.002.018-.005.009-.003a.134.134 0 0 0 .026-.009.244.244 0 0 0 .024-.01l.008-.003.008-.003.015-.007a.267.267 0 0 0 .023-.013l.028-.018a.121.121 0 0 0 .014-.01l.032-.028a.44.44 0 0 0 .029-.032l.011-.015-.013-.017-.002-.003-.002-.003-.007-.009-.002-.002-.004-.006-.002-.002-.006-.007-.004-.02-.002-.002-.002-.002-.004-.003-.004-.003-.005-.003-.002-.001-.005-.002-.002-.001-.008-.003-.008-.003a.476.476 0 0 0-.107-.016c.061-.094.117-.167.171-.222l.014-.013.014-.013.013-.012.013-.012.026-.02.026-.018.013-.008.026-.015.014-.007.026-.012.027-.01.013-.004.014-.004.014-.003.014-.003.014-.002.015-.002.014-.002.029-.003.015-.001h.061c.116 0 .254.015.433.015v-.101h-.014l-.009-.001-.009-.001-.033-.004-.012-.002-.014-.002-.014-.002-.015-.002-.082-.013-.018-.003-.057-.009a1.008 1.008 0 0 0-.061-.008l-.021-.003-.043-.005-.021-.002-.022-.002-.022-.002-.022-.002-.044-.003-.023-.001-.022-.001-.045-.002-.045-.001h-.066l-.022.001-.021.001-.021.001-.021.002-.02.002-.02.003-.02.003-.019.004-.019.004-.019.004a.12.12 0 0 0-.018.005l-.018.006-.017.006a.122.122 0 0 0-.017.007c-.005.002-.011.004-.015.007l-.015.007-.015.008-.014.009-.013.009-.013.01-.012.011-.011.012-.011.012-.19.312-.028-.015-.027-.015-.026-.014-.026-.02-.025-.013-.025-.013-.025-.012-.023-.012-.024-.011-.023-.011-.045-.02-.022-.009-.021-.009-.021-.009-.021-.008-.02-.008-.02-.007-.02-.007-.019-.007-.039-.012-.019-.005-.019-.005-.018-.005a1.018 1.018 0 0 0-.456.005l-.021.005-.022.005-.045.011-.023.006-.047.013-.024.007-.025.007a1.65 1.65 0 0 0-.077.024l-.082.026-.071.022-.037.012a.568.568 0 0 0-.038.013l-.01.003-.01.003-.041.015-.041.015-.02.009-.01.004-.01.004-.01.004-.01.004-.01.004-.01.004-.01.005-.01.005-.01.005-.009.005-.018.011-.017.011-.009.006-.008.006-.008.005-.008.006-.008.006-.007.006-.008.006-.014.013-.013.013-.012.014-.005.007-.005.007-.005.008-.009.015-.003.008-.003.007-.003.008.006.005.013.009.014.007.007.002.007.002.015.004.007.001.008.001h.032l.016-.002.008-.001.009-.001.009-.002.009-.002.009-.002.018-.005.009-.003.019-.006.019-.007.01-.003.01-.003.01-.003.01-.003.02-.008.01-.004.032-.012c.237-.075.246-.068.549-.07zm-.683.794c.012-.006.023-.011.061-.011.076 0 .082.008.107.017a.126.126 0 0 0 .01.003h.002l.005.001.005.001.003.001h.006l.004.001h.004l.004.001h.009l.004.001h.005l.011.001h.006l.006.001h.006c.013.157-.035.059.065.135l.005-.001.004-.001.008-.002.012-.003.003-.001.023-.006.006-.002a.943.943 0 0 0 .025-.006l.014-.003h.002l.02-.003h.003l.006-.001h.007l.007-.001h.086V11.6h.263l-.006-.009-.006-.008-.014-.015-.014-.014-.007-.006-.007-.006-.007-.006-.014-.01-.007-.004-.007-.004-.007-.004-.022-.009-.007-.002-.007-.001-.007-.002h-.007l-.015-.002-.015-.001h-.007l-.022.001-.007.001-.006.001-.015.003-.007.002-.007.001-.007.002-.007.002-.007.002-.007.002-.007.003-.007.002-.007.002-.006.003-.007.003-.007.003-.006.003-.007.003-.006.003-.007.003-.012.007-.013.007-.012.007a1.041 1.041 0 0 0-.049.033l-.001-.001-.001-.001-.001-.001-.004-.004-.003-.003h-.003c-.003.006-.015-.013-.019-.015l-.007-.001-.003-.001-.002-.002-.002-.001-.004-.003-.002-.001-.002-.001-.001-.001-.002-.001-.001-.001-.001-.001-.001-.001h-.001l-.002-.001-.003-.003v-.001h-.003l-.002-.001h-.002l-.006-.006-.001-.001h-.003l-.004-.002h-.002l-.002-.001-.002-.001-.006-.002-.006-.002-.005-.002-.012-.004-.006-.001-.006-.001-.006-.001-.006-.001-.006-.001-.006-.001-.006-.001h-.006l-.006-.001h-.085l-.006.001h-.006l-.007.001-.013.002-.013.002-.006.001-.006.001-.007.001-.006.001-.006.001-.006.001-.038.009-.012.003-.006.001-.018.005-.072.018v.068l.012-.001.006-.001h.015l.004-.001h.008l.004-.001.007-.001.003-.001h.006l.006-.001.002-.001h.002l.002-.001h.002l.002-.001h.002l.002-.001h.003l.001-.001.003-.001h.001l.001-.001h.001l.005-.01zm2.949-.626a.298.298 0 0 0-.014.024l-.004.008a.163.163 0 0 0-.011.042l.008-.004.008-.003.008-.004.007-.004.015-.007.007-.003.007-.003.007-.003.007-.003.013-.006.007-.003.006-.003.006-.003.006-.002.017-.007.006-.003.005-.002.006-.002.005-.002.005-.001.005-.002.006-.002.005-.001.005-.002.011-.003.005-.002.005-.001.005-.001.005-.001.005-.001.005-.001.005-.001.005-.001c.245-.045.351.124.361.124h.031l.008-.001h.012l.017-.002.004-.001h.009l.004-.001h.005l.004-.001h.005l.004-.001h.005l.005-.001.004-.001h.009l.01-.002.004-.001.005-.001.009-.002.005-.001.017-.004.021-.006.008-.002.004-.001.007-.002a.044.044 0 0 0 .016-.006l.003-.001.002-.001.003-.001.002-.001.002-.001.002-.001.002-.001.007-.004.003-.001.003-.002.012-.006.002-.001.002-.001.002-.001.002-.001.002-.001.008-.004.001-.001h.001l.003-.002h.001l.001-.001.001-.001.002-.002h.001v-.001l.001-.001v-.001l.002-.005v-.037l-.002-.012v-.003l-.001-.003v-.003l-.001-.004v-.008l-.001-.004-.002-.009v-.005l-.001-.005-.001-.005-.002-.012v-.017l.001-.005.001-.005.001-.005.001-.005.002-.004.002-.005.002-.004.006-.009.003-.004.003-.004.004-.004.004-.004.004-.003.004-.004.004-.003.005-.003.005-.003.005-.003.006-.003.005-.003.006-.002.006-.003.006-.002.006-.003.006-.002.007-.002.007-.002.007-.002.007-.002.007-.002.015-.004.008-.001.007-.002.015-.003.008-.001.008-.001.008-.001.008-.001.008-.001.008-.001.008-.001.008-.001h.016l.008-.001h.087c-.054-.08.025-.068-.263-.068h-.023l-.015.001-.014.002h-.007l-.006.001-.006.001-.006.001-.017.004-.005.002-.005.001-.005.002-.01.004-.01.005-.009.005-.013.009-.004.002-.004.003-.004.003-.003.003-.014.014-.003.004-.003.003-.003.004-.003.004-.006.008-.003.004a.1.1 0 0 0-.011.017l-.003.004c-.016.027-.031.057-.047.089l-.015-.007a.843.843 0 0 0-.078-.031l-.015-.005-.047-.012-.016-.003-.031-.005-.015-.002-.004-.007-.015-.001-.015-.001h-.06l-.029.002-.014.001-.014.001-.014.002-.028.005-.014.003-.013.003-.014.003-.013.004-.013.004-.013.004-.024.009-.012.005-.012.005-.011.005-.011.005-.011.006-.01.005-.01.006-.01.006-.018.013-.008.007-.009.007-.008.007-.015.015-.007.007-.006.008-.006.008-.004.007zm-1.891 2.14l.019.001.018.002.01.001.009.002.01.002.018.005.01.003.018.007.009.004.009.004.018.01.009.005.002.001.026.017c.014.011.025.019.033.028l.016.016.005.007.001.003.001.003.001.002v.009l-.001.001-.001.002-.001.001-.002.001-.001.001-.004.002-.002.001-.002.001-.002.001-.005.001-.002.001-.007.001h-.006l-.002.001h-.004l-.001.001-.001.001v.002l.002.002.002.001.005.003.003.002.003.002.004.002.005.002.005.002.006.003.006.003.007.003.008.003.009.004.009.004.01.004h.194l.005-.001.005-.001.004-.001.004-.001.004-.001.004-.001.004-.001.003-.001.003-.001.004-.001.003-.001.007-.002.003-.001.003-.001.009-.003.003-.001.003-.001.007-.003.008.005.002-.001.002-.001h.002l.002-.001.002-.001.007-.003.002-.001.005-.002.002-.001.002-.001.012-.005.003-.001.005-.002.006-.002.002-.001.003-.001.003-.001.006-.002.01-.003.004-.001.004-.001.003-.001.004-.001.004-.001.004-.001.009-.002.005-.001-.001-.002-.001-.003-.001-.003-.006-.01-.002-.004-.002-.003-.002-.004-.002-.004-.003-.004-.002-.004-.003-.008-.005-.009-.005-.01-.002-.004-.002-.005-.002-.005-.002-.005-.001-.005-.003-.01-.001-.005-.001-.005v-.01c0-.008.001-.016.004-.024.007-.017.023-.034.052-.049.054-.026.152-.044.324-.044v-.068a1.082 1.082 0 0 1-.065-.007l-.024-.003-.012-.001-.012-.002-.011-.001-.021-.004-.01-.002-.01-.001-.01-.002-.01-.001-.009-.002-.018-.003-.009-.001-.026-.003-.009-.003-.008-.001h-.054l-.007.001-.007.001-.007.001-.007.002-.007.002-.007.002-.007.002-.007.002-.007.003-.007.004-.007.003-.007.004-.014.01-.007.005-.015.012-.008.009-.015.015-.015.016-.007.009-.016.019-.016.021-.008.012-.009.012-.026.039-.011-.002-.01-.003-.01-.002-.009-.002-.008-.002-.008-.003-.007-.002-.014-.005-.006-.003-.005-.002-.011-.005-.009-.005-.004-.002-.004-.002-.007-.005-.003-.002-.003-.002-.006-.004-.002-.002-.002-.002-.003-.002-.002-.002-.003-.002-.002-.002-.003-.002-.003-.001-.003-.002-.003-.002-.007-.003-.004-.001-.004-.001-.009-.003-.005-.001-.005-.001-.005-.001-.012-.002-.007-.001-.023-.003a2.076 2.076 0 0 0-.217-.008.573.573 0 0 0-.173.025.391.391 0 0 0-.094.046l-.005.003h-.007l-.009.007-.005.004a.259.259 0 0 0-.018.016l-.008.008-.004.004-.004.004-.004.004-.008.01-.004.005-.007.01-.004.005-.007.01-.003.005.014-.001h.007l.007-.001.007-.001.008-.001.015-.003.023-.004.008-.002.008-.002.008-.002.008-.002.008-.002.009-.002.016-.005.009-.002.009-.002.008-.002.017-.005.009-.002.009-.002.009-.002.009-.002.009-.001.018-.004.009-.001.009-.002.009-.001.009-.001.01-.001.028-.003h.037l.01-.004zm.788-.933l-.011-.004-.022-.008-.011-.004-.021-.009-.011-.004-.011-.005-.011-.005-.011-.004-.011-.005-.011-.005-.011-.004-.012-.005-.011-.004-.023-.009-.012-.004-.012-.004-.013-.004-.012-.004-.013-.003-.013-.004-.026-.006-.014-.003-.014-.002-.014-.002-.015-.002-.015-.001-.015-.001-.015-.001h-.061l-.017.001-.017.002-.018.002-.037.005-.019.004a.142.142 0 0 0-.02.004l-.02.004-.042.011-.022.006-.022.007-.022.008a1.819 1.819 0 0 0-.258.113.67.67 0 0 1-.063.029l-.008.003-.002.001-.002.001h-.002l-.002.001h-.002l-.002.001-.003.002-.002.001-.006.004-.001.001-.001.001-.001.001-.001.001-.003.004-.001.002-.001.001-.003.006v.002l-.004.01v.003l-.002.006-.001.004-.001.003-.001.004-.001.004-.001.004-.002.009-.001.005-.001.005-.001.005-.001.006-.001.005h.026l.023-.001h.011l.011-.001.02-.002.018-.002.009-.001.016-.003.007-.001.008-.002.007-.001.02-.006.013-.004.006-.002.006-.002.006-.002.006-.002.012-.005.005-.002.006-.002.006-.002.006-.002.012-.005.006-.002.006-.002.006-.002.007-.002.006-.002.007-.002.022-.007.016-.004.008-.002c.054-.013.129-.022.247-.022a.693.693 0 0 1 .168.017l.017.006a.126.126 0 0 1 .041.025l.007.008.003.004.006.013.001.005.001.004a.063.063 0 0 1 .003.019l.001.015a.118.118 0 0 0 .015.074l.007.008.008.008.005.003.005.003.006.003.006.003.007.003.008.003.008.002.009.002.006.001.006.001.014.002.015.001h.031l.017-.001.026-.003.037-.006.009-.002.01-.002.039-.008.019-.005a.9.9 0 0 0 .049-.014l.038-.012a.568.568 0 0 0 .038-.013l.018-.006.009-.003.009-.003.008-.003.008-.003.016-.006.015-.007.007-.002.014-.006.007-.003.007-.002.006-.003.006-.003a.315.315 0 0 0 .026-.013l.004-.002c.016-.01.034-.02.044-.028.029-.023.035-.059.025-.073-.016-.021-.088-.005-.128-.007h-.019l-.003-.001H21.4l-.002-.001-.003-.002v-.009l.001-.001v-.002l.001-.001.003-.01.001-.002.001-.002.006-.01.004-.006.003-.005.004-.007.002-.004.002-.004.002-.004.002-.004.003-.004.001-.003.002-.003.001-.003.001-.003.02-.03.001-.002.007-.008.003-.003a.183.183 0 0 1 .05-.036l.008-.003.01-.005.003-.001.011-.005.003-.001.003-.001.003-.001.006-.003.005-.002.005-.002.006-.002.005-.002.023-.008.005-.001.006-.002.017-.004.006-.001.006-.001.006-.001.006-.001.006-.001.006-.001.019-.003h.006l.006-.001.013-.001.006-.001h.013l.013-.001h.013l.014-.001h.207v-.068l-.021-.002-.021-.002-.02-.002-.02-.002-.019-.002-.018-.002-.018-.002-.018-.002-.017-.002-.017-.002-.016-.002-.032-.004-.03-.004-.015-.002-.014-.001-.027-.003-.013-.001-.025-.002h-.082l-.011.001-.01.001-.011.001-.01.002-.01.002-.01.002-.01.003-.009.003-.009.003-.009.004-.01.004-.009.004-.018.011-.009.006-.009.006-.009.007-.009.007-.009.008-.009.008-.009.009-.01.01-.009.01-.009.01-.01.011-.01.012-.01.012m-.156.09a.195.195 0 0 1-.022-.008m-.322.108a.117.117 0 0 1 .02.005m-.001 0l.017.006m.041.025l.007.008M3.774 9.387c.127.095.239.207.336.338.178.243.242.539.242.838 0 .241-.038.483-.142.701a1.355 1.355 0 0 1-.388.489 1.537 1.537 0 0 1-.548.271 2.39 2.39 0 0 1-.624.08H.542V7.069h2.013c.193 0 .385.022.571.074.182.05.35.134.496.256.147.124.258.279.337.456.089.199.12.421.12.639 0 .345-.102.646-.305.893zm1.959-1.285v.835h2.184V9.97H5.733v1.103h2.584v1.033H4.678V7.069h3.746l-.318 1.033H5.733zm5.482 0v4.003H10.16V8.102H8.687V7.069h4.083l-.318 1.033h-1.237zm2.917 0v.835h2.184V9.97h-2.184v1.103h2.584v1.033h-3.639V7.069h3.746l-.319 1.033h-2.372zM1.596 10.009v1.064h1.117c.091 0 .185-.006.275-.027a.32.32 0 0 0 .144-.068.257.257 0 0 0 .076-.124.958.958 0 0 0 .038-.297c0-.147-.027-.307-.137-.411-.116-.109-.281-.138-.434-.138H1.596zm0-1.907v.875h.819a.802.802 0 0 0 .233-.035.673.673 0 0 0 .193-.097.395.395 0 0 0 .116-.14.477.477 0 0 0 .042-.211c0-.079-.009-.251-.08-.305-.095-.07-.23-.087-.344-.087h-.979zm0 0" clip-rule="evenodd"/></symbol><symbol id="logo2" viewBox="0 0 28 16"><path fill-rule="evenodd" d="M5.734 10.288l.913-3.439h1.492l-.176.719-1.467 5.537H5.079l-.971-3.116-.971 3.116H1.721L.215 7.422l-.163-.573h1.517l.913 3.439.864-2.794H4.87l.864 2.794zm17.863-7.686V.981h.718c.144 0 .254.015.329.044.075.029.135.08.18.154a.46.46 0 0 1 .067.244.41.41 0 0 1-.112.291c-.074.079-.189.129-.344.15.057.027.1.054.129.081.062.057.122.129.177.215l.28.442h-.268l-.214-.338a3.283 3.283 0 0 0-.154-.224.517.517 0 0 0-.109-.108.337.337 0 0 0-.098-.043.647.647 0 0 0-.119-.008h-.248v.72h-.214zm.215-.906h.461c.098 0 .174-.01.229-.031a.236.236 0 0 0 .125-.097.261.261 0 0 0 .043-.145.242.242 0 0 0-.083-.189c-.055-.049-.143-.074-.262-.074h-.512v.536zm.392-1.309a1.398 1.398 0 0 1 1.4 1.4 1.398 1.398 0 0 1-1.4 1.4 1.396 1.396 0 0 1-1.399-1.4 1.396 1.396 0 0 1 1.399-1.4zm.881.518a1.243 1.243 0 0 0-1.762 0 1.245 1.245 0 1 0 1.762 0zm-.899 8.05c-.902-.477-1.181-.485-2.101-.195-.226.071-.718.196-.808.446.196.164.565-.151.953-.151.421 0 1.073-.084 1.355.301h-.2c.037.442.41.245.711.209.377-.046.673-.076.845-.309-.089-.121-.101-.134-.301-.151.501-.748.76-.552 1.555-.552v-.15c-.203-.004-1.393-.301-1.716.09l-.293.462zm2.959.2c-.502-.241-1.074-.019-1.104.251.266-.128.343-.151.602-.151.397 0 .114.2.301.2.095 0 .317-.038.383-.076.114-.064.11-.016.079-.188-.035-.191.297-.238.541-.238-.082-.119.038-.101-.401-.101-.259.002-.311.135-.401.303zm-2.659 1.956c-.372-.087-.618-.431-1.559.046-.173.088-.147.021-.196.205.435 0 .297-.15.903-.15.631 0 .205.267.509.34.194.046.67-.124.795-.19v-.15c-.184-.016-.166.019-.085-.12.061-.102.097-.119.201-.166.179-.081.392-.066.636-.066v-.1c-.707-.058-.83-.207-1.204.351zM3.667 5.486l-.028.665H.092c.036-.744.054-1.774.054-3.091C.146 1.928.128.996.092.267h.839C.894.876.877 1.808.877 3.06c0 1.03-.016 1.855-.051 2.477.902 0 1.85-.017 2.841-.051zm1.569.665h-.855c.045-.976.068-2.007.068-3.091A50.21 50.21 0 0 0 4.381.267h.855a56.519 56.519 0 0 0-.063 2.793c0 1.09.022 2.121.063 3.091zm5.323-.122a4.753 4.753 0 0 1-1.493.243c-1.054 0-1.85-.282-2.387-.847-.537-.563-.804-1.262-.804-2.094 0-.84.293-1.574.874-2.202.583-.63 1.392-.943 2.426-.943.372 0 .725.043 1.059.131l-.112.75c-.496-.12-.896-.18-1.199-.18-.727 0-1.285.22-1.671.662-.386.441-.579.988-.579 1.642 0 .657.222 1.232.665 1.726.443.495 1.069.742 1.877.742.148 0 .367-.023.663-.068a6.777 6.777 0 0 1-.076-1.093 8.4 8.4 0 0 0-.063-1.026h.82a20.17 20.17 0 0 0-.036 1.26c0 .19.011.621.036 1.297zm5.326.122h-.855c.029-1.043.045-1.976.045-2.801h-2.701c0 .668.015 1.603.045 2.801h-.855c.042-1.1.063-2.13.063-3.091 0-1.006-.021-1.937-.063-2.793h.855a61.997 61.997 0 0 0-.054 2.512h2.719c0-.652-.018-1.49-.054-2.512h.855a64.708 64.708 0 0 0 0 5.884zM20.891.267l-.021.638a35.52 35.52 0 0 0-1.845-.046 219.86 219.86 0 0 0-.009 2.201c0 .983.015 2.013.046 3.091h-.825a90.724 90.724 0 0 0 .026-5.292c-.445 0-1.069.019-1.875.054l.022-.646h4.481zm.427 12.606c-.394-.208-.686-.322-.988-.348.116-.108.221-.23.311-.366.023-.033.044-.068.065-.103l-.03.002c.031-.004.015-.036.053-.039-.011-.047.037-.056.036-.087l.001.017c.024-.045.046-.091.068-.137a.093.093 0 0 0-.065.074 1.59 1.59 0 0 1-.202.183c-.502.049-.086.037-.327-.173-.19-.167-.47-.06-.568-.052.04-.147.14-.164.329-.164.488 0 .196-.015.535.164.092-.061.145-.164.247-.164h.108c.058-.145.103-.295.138-.448.028.008.157.036.181.044.154.05.337.134.384.213.142.239-.067-.068.012.273 1.07.249.443.047.655-.082.13-.08.312-.04.439.022.187.092.309.107.13-.046-.332-.284-.57-.249-.853-.099-.244-.364-.517-.439-.911-.495-.015.061-.016.103-.038.168-.041-.012-.14-.076-.285-.126.016-.02.145-.05.322-.043.065-.355.092-.718.092-1.08 0-.383-.038-.765-.124-1.139a3.02 3.02 0 0 0-.421-1.003 2.273 2.273 0 0 0-.183-.238 1.364 1.364 0 0 0-.142.183c.121.01.128.018.182.091-.104.141-.283.16-.51.187-.181.022-.407.14-.429-.126h.121c-.17-.233-.564-.182-.818-.182-.234 0-.457.19-.576.091.055-.151.352-.226.489-.269.556-.175.725-.17 1.269.118l.175-.279a.16.16 0 0 1 .026-.026 2.256 2.256 0 0 0-.39-.27c-.358-.197-.765-.268-1.17-.268H15.87v3.645l.076-.023c.62-.196.885-.226 1.371-.014v-.901c-.17 0-.234.029-.182.251-.825.069-.275.081-.543-.154-.191-.166-.471-.06-.568-.052.039-.147.14-.165.329-.165.488 0 .197-.015.535.165.092-.061.144-.165.247-.165.068 0 .128-.001.182.004v-.461c-.131-.014-.139-.003-.223-.118.013-.016.099-.039.223-.043v-.587h1.248c.17 0 .355.026.503.115a.89.89 0 0 1 .318.324c.046.078.083.162.114.247.371-.119.505.033.693.077.226-.337.3-.247.727-.212v.061c-.147 0-.276-.009-.385.04-.062.028-.085.038-.121.1-.049.084-.06.063.051.072v.091c-.075.04-.363.142-.48.115-.184-.045.074-.206-.308-.206-.053 0-.097.002-.134.005.015.054.027.109.037.164.046.249.065.503.065.756 0 .247-.014.495-.049.74a.866.866 0 0 1 .5.076c.073-.138.117-.247.329-.247.36 0 .262-.015.329.082-.2 0-.473.039-.444.195.026.14.029.101-.064.154a.984.984 0 0 1-.314.062c-.153 0 .079-.165-.247-.165-.045 0-.082 0-.117.003-.031.148-.08.295-.154.427a.776.776 0 0 1-.302.302c-.158.089-.362.112-.54.112h-1.256v-.537c-.156.025-.287.006-.305-.224h.165c-.232-.316-.766-.247-1.111-.247a.79.79 0 0 0-.194.027v.829c.075.022.086.031.153.09.133-.089.362-.236.535 0h-.329v.165c-.163 0-.167.013-.288.041a.261.261 0 0 0-.071-.041v.878a.408.408 0 0 1 .126-.017c.36 0 .261-.015.329.082-.2 0-.473.039-.444.195.019.105.026.109-.011.127v.014h2.797c.095 0 .187-.003.282-.011.187-.008.633-.135.878-.14.339-.008.789-.033.995.249h-.165c.03.362.337.201.583.171.309-.037.552-.062.692-.254-.073-.099-.082-.11-.247-.124.411-.614.623-.453 1.276-.453v-.123c-.167-.004-1.143-.247-1.408.073l-.236.38zm-2.264.987v.082c.163-.014.099-.041.206-.041.155 0 .077.027.246.041.016.191-.044.072.082.165.121-.029.126-.041.288-.041v-.165h.329c-.173-.236-.402-.089-.535 0-.007-.006-.019-.026-.023-.019-.004.008-.018-.015-.024-.018-.08-.049 0-.013-.081-.045-.147-.058-.353.01-.488.041zm1.779-2.046c.069-.025.191-.01.361-.01-.069-.094-.193-.118-.303-.123-.01.035-.048.113-.058.133zm2.912 1.223c-.412-.198-.881-.016-.905.205.218-.105.281-.123.494-.123.326 0 .094.165.247.165.078 0 .26-.031.314-.062.094-.053.091-.013.064-.154-.029-.156.244-.195.444-.195-.068-.097.031-.082-.329-.082-.213-.001-.256.108-.329.246zm-2.674 2.716c-.294-.069-.048-.123-.576-.123-.22 0-.363.073-.452.206.181-.004.457-.176.699 0 .221.161-.159.055.124.164h.242c.132-.033.125-.053.251-.082-.024-.067-.277-.288.412-.288v-.082c-.374-.032-.457-.159-.7.205zm.493-1.111c-.306-.071-.507-.354-1.279.037-.142.072-.121.017-.161.169.357 0 .244-.123.741-.123.518 0 .168.219.418.279.159.038.55-.102.652-.155v-.123c-.151-.013-.136.016-.069-.098.049-.084.079-.097.164-.136.147-.066.322-.054.522-.054v-.082c-.58-.05-.681-.172-.988.286zm-3.648-2.241c-.306-.071-.507-.354-1.279.038-.142.072-.121.017-.161.168.357 0 .244-.123.741-.123.518 0 .168.219.417.279.159.038.55-.102.652-.155v-.123c-.151-.013-.136.016-.069-.098.049-.084.079-.097.164-.136.148-.066.322-.054.523-.054v-.082c-.581-.051-.681-.172-.988.286zM9.893 6.85v6.254H8.448V6.85h1.445zm4.11 3.521V6.85h1.446v3.735c-.147.06-.285.141-.325.252.079.066.192.037.325-.009v.743c-.188.036-.198.045-.346.157.081-.015.288-.068.346-.068v1.247c-.374-.146-.776.002-.839.197h-.604l-.314-.507c.28-.258.521-.158 1.035-.158v-.123c-.14-.003-.852-.176-1.234-.04l-.713-1.152.01.001c.137.019.497.143.566.259.142.239-.067-.069.012.273 1.07.249.443.047.655-.082.13-.079.312-.04.439.022.186.092.309.107.129-.046-.332-.284-.57-.249-.853-.099-.305-.455-.799-.513-1.061-.492l-.901-1.457v2.073h-.013c-.189 0-.29.017-.329.165.062-.005.201-.051.342-.039v.79a5.146 5.146 0 0 0-.419.117c-.185.059-.589.161-.664.366.161.134.464-.123.782-.123.09 0 .194-.005.301-.006v.26H10.33V6.85h1.482l2.191 3.521zm1.282 2.734h-.609a.802.802 0 0 1 .421-.089c.172 0 .188.045.188.089zm0 0" clip-rule="evenodd"/></symbol><symbol id="logo3" viewBox="0 0 32 12"><path fill-rule="evenodd" d="M.154.094H7.24v11.811H.612a8.817 8.817 0 0 0 2.141-.444c1.265-.416 2.293-1.006 3.085-1.776.526-.511.839-1.038.93-1.583.154-.93-.371-1.738-1.164-2.188-1.334-.757-3.425-.917-4.294-1.958-.397-.474-.589-1.303 1.018-2.025a8.08 8.08 0 0 1 1.784-.568c.532-.093.991-.117 1.376-.073.71.081 1.019.394.928.94-.038.232-.17.481-.396.747-.225.266-.339.406-.341.42-.016.096.022.149.113.159.243.027.499-.173.767-.601.25-.388.404-.754.461-1.095.118-.709-.35-1.125-1.405-1.245-.82-.092-1.785.082-2.891.526C1.385 1.67.638 2.405.481 3.347c-.082.491.063.925.434 1.301 1.327 1.219 5.683 1.307 5.267 3.806a1.643 1.643 0 0 1-.279.656c-.516.748-1.51 1.307-2.977 1.684-1.024.263-1.948.382-2.772.352V.094zm30.64 4.398a.8.8 0 0 1 .803.803.8.8 0 0 1-.803.803.8.8 0 0 1-.803-.803.8.8 0 0 1 .803-.803zm.462 1.239h-.221l-.117-.184a1.145 1.145 0 0 0-.074-.108.192.192 0 0 0-.045-.045.117.117 0 0 0-.036-.016c-.015-.003-.034-.003-.05-.003h-.085v.355h-.182v-.875h.392a.52.52 0 0 1 .176.024.212.212 0 0 1 .107.091c.026.043.039.09.039.14a.24.24 0 0 1-.168.233c.034.032.063.07.089.11l.175.278a.634.634 0 0 0-.462-1.071.632.632 0 0 0-.449 1.084.632.632 0 0 0 .898 0 .08.08 0 0 0 .013-.013zm-.628-.522h.19a.31.31 0 0 0 .1-.013.075.075 0 0 0 .043-.033.09.09 0 0 0 .016-.051.082.082 0 0 0-.029-.065c-.026-.023-.072-.027-.104-.027h-.215v.189zM11.029 7.897a10.18 10.18 0 0 1-.677.835c-.576.639-1.111 1.046-1.584 1.225-.677.257-.932-.171-.895-1.317.025-.763.2-1.671.705-2.671.315-.624.696-1.045 1.036-1.316.857-.682 1.348-.085 1.209.741-.205 1.222-1.782 2.325-2.255 2.469a6.246 6.246 0 0 0-.113.932c-.02.582.151.797.542.657.373-.134.796-.464 1.27-.988.341-.378.649-.775.913-1.18.097-.417.203-.875.329-1.378.051-.206.122-.513.258-.911.033-.095.128-.188.25-.29.122-.101.228-.158.322-.168.078-.008.117.026.112.1-.003.062-.104.333-.277.819a35.928 35.928 0 0 0-.658 2.157c.131-.228.529-.845 1.258-1.789.249-.323.636-.757 1.114-1.306a.37.37 0 0 1 .25-.14c.25-.019.37.102.36.36a.433.433 0 0 1-.077.206c-.709 1.115-1.065 2.005-1.082 2.63-.012.441.166.607.546.516.297-.071.615-.297.964-.678.084-.092.179-.187.27-.303a1.336 1.336 0 0 1-.038-.443c.024-.312.119-.479.295-.505.102-.015.207.04.31.172.185-.189.509-.595.922-1.23.396-.608.674-1.044.9-1.291.355-.387.725-.574 1.116-.561.15.005.299.059.456.148.162.092.24.193.24.313 0 .071-.123.106-.368.099a1.08 1.08 0 0 0-.665.198.642.642 0 0 0-.257.774c.115.309.234.6.318.893.098.346.124.654.096.923.233-.071.499-.331.645-.501.077-.221.213-.467.386-.745.287-.459.723-1.16 1.006-1.156.159.003.242.033.236.101-.001.007-.314.679-.613 1.055a4.905 4.905 0 0 0-.329.462c-.002.002-.002.005-.003.007a1.031 1.031 0 0 0-.179.427c-.031.275.055.404.252.389.342-.026 1.03-.675 2.009-1.856.088-.107.185-.268.354-.449.064-.069.158-.084.244-.08a.43.43 0 0 1 .259.099c.076.061.11.133.107.21.001-.007-.198.241-.614.756-.43.533-.672.948-.709 1.238a.415.415 0 0 0 .012.187c.194.563 1.24-.47 1.489-.717.029-.403.244-.829.648-1.264.431-.463.9-.65 1.376-.566a.427.427 0 0 1 .248.154.375.375 0 0 1 .104.241c-.003.241-.221.486-.662.755-.398.242-.756.402-1.086.469a1.698 1.698 0 0 0-.116.485c-.042.865.985.44 1.318.256.3-.166.592-.376.756-.534.046-.309.163-.652.361-1.018.199-.368.491-.767.868-1.203.331-.383.682-.734 1.038-1.059.362-.33.741-.64 1.127-.929.56-.42 1.024-.62 1.387-.566.117.017.225.094.324.232.103.143.152.274.145.394-.017.314-.2.708-.545 1.16-.338.444-.835.927-1.485 1.438-.503.396-.985.72-1.44 1.002a14.65 14.65 0 0 1-1.309.738c-.044.849.184 1.344.681 1.519.491.174 1.22.031 2.185-.525.041-.023.073-.032.108-.016.046.021.066.065.06.124-.003.035-.013.065-.043.086a3.463 3.463 0 0 1-1.142.523c-.528.137-.989.123-1.385-.012-.649-.221-.975-.756-.949-1.645a6.057 6.057 0 0 1-.693.47c-.541.307-1.755.682-1.882-.42-.331.326-1.374 1.261-1.907.743-.133-.129-.181-.334-.15-.615.014-.129.124-.391.336-.77-.422.43-.695.707-.815.817-.386.356-.713.544-.987.576-.345.04-.505-.095-.468-.574-.159.175-.349.28-.638.402-.077.289-.258.535-.531.755-.267.215-.56.348-.885.413-.489.098-.925.028-1.318-.252a1.352 1.352 0 0 1-.419-.461c-.512.648-1.026 1.033-1.542 1.167-.591.154-.88-.184-.86-1.022a4.15 4.15 0 0 1 .579-2.049 9.231 9.231 0 0 0-1.227 1.527c-.392.608-.769 1.326-1.171 2.132-.067.135-.122.206-.152.217-.093.033-.136-.067-.126-.305.002-.063.023-.115.04-.162.104-.277.182-.6.277-.957zm19.168-6.079c.01-.168-.05-.264-.178-.284-.28-.044-.636.143-1.069.544-.244.227-.503.503-.777.818-.273.314-.567.666-.871 1.065-.333.435-.599.817-.794 1.149a4.066 4.066 0 0 0-.398.844c.26-.117.569-.301.924-.552.353-.249.763-.559 1.218-.961a12.22 12.22 0 0 0 1.16-1.168c.303-.352.51-.654.62-.902.102-.231.158-.421.165-.553zm-5.246 2.831c0-.092-.05-.151-.163-.169-.143-.024-.343.126-.615.445-.236.276-.383.498-.442.664.245-.06.494-.187.754-.361.311-.207.465-.391.466-.579zm-9.005 1.7c-.032.055-.073.106-.111.16a4.603 4.603 0 0 0 1.909.227c0-.048.005-.094.011-.142.022-.211-.013-.599-.135-1.158-.118-.539-.197-.886-.166-1.045a23.608 23.608 0 0 1-1.508 1.958zm-.372.532c-.027.034-.049.067-.076.097.255.597.678.826 1.268.715.408-.076.701-.281.873-.631-.853.134-1.549.087-2.065-.181zM9.962 4.943c-.165.023-.453.365-.794 1.068-.289.596-.438 1.07-.494 1.397.269-.107.79-.438 1.092-.884.04-.06.25-.301.381-.613.195-.464.291-1.035-.185-.968zm0 0" clip-rule="evenodd"/></symbol><symbol id="logo4" viewBox="0 0 32 13"><g fill-rule="evenodd" clip-rule="evenodd"><path d="M14.972 5.184c-.21.018-.347.076-.43.182-.132.168-.114.418-.053.597.062.183.177.319.291.348a.627.627 0 0 0 .614-.168.652.652 0 0 0 .178-.607c-.057-.21-.337-.374-.6-.352zm16.109 7.022c-.204-.176-.876-.311-1.153-.381a23.965 23.965 0 0 0-1.302-.287 34.8 34.8 0 0 0-2.725-.4 69.22 69.22 0 0 0-1.507-.15c-2.306-.207-4.623-.292-6.937-.32-4.545-.055-9.15-.105-13.59.99-.831.205-1.67.428-2.48.706-.118.041-1.197.44-1.137.57.041.091.712-.085.835-.124 5.194-1.64 10.718-1.627 16.107-1.446 1.391.046 2.781.095 4.17.183 2.396.151 4.81.385 7.151.935.448.106.732.214 1.179.325.329.082.734-.128.894-.21.137-.071.648-.258.495-.391zm-4.419-7.419c0 .713.58 1.294 1.293 1.294s1.293-.581 1.293-1.294c0-.713-.58-1.294-1.293-1.294s-1.293.58-1.293 1.294zm.272 0c0-.563.457-1.021 1.02-1.021a1.021 1.021 0 0 1 0 2.043c-.562 0-1.02-.459-1.02-1.022zm.553.65V4.12h.558c.14 0 .242.012.306.035a.303.303 0 0 1 .152.127c.038.06.058.13.058.208 0 .099-.029.18-.087.245a.416.416 0 0 1-.26.122c.057.034.104.07.142.111.037.04.088.111.15.213l.161.257h-.317l-.191-.286a2.018 2.018 0 0 0-.139-.194.213.213 0 0 0-.08-.055.427.427 0 0 0-.133-.015h-.053v.549h-.267zm.266-.76h.195a.997.997 0 0 0 .237-.016.14.14 0 0 0 .074-.056.17.17 0 0 0 .027-.099.16.16 0 0 0-.035-.107.16.16 0 0 0-.1-.051 2.114 2.114 0 0 0-.193-.005h-.206v.334zM4.173 1.611a6.794 6.794 0 0 0-1.616.652 7.451 7.451 0 0 0-.828.518c-.225.169-.462.368-.567.637-.1.255-.161.736.251.7.116-.01.259-.046.364-.1.23-.118.372-.354.57-.514.208-.169.431-.311.666-.438.528-.284 1.095-.493 1.7-.513.377-.012.516.008.881.092.04.01-.591 1.055-.986 1.788-.077.14-.913 1.767-1.038 1.873-.16.134-.23.131-.425.135-.166.002-.323.005-.463.057-.122.045-.243.193-.303.369-.061.181-.049.358.034.488.07.109.204.141.417.184.07.014.224-.028.263.043.041.074-.065.21-.104.274a7.911 7.911 0 0 1-.077.139c-.253.45-.515.914-.707 1.457-.082.233-.24.793.07.98a.586.586 0 0 0 .716-.075c.357-.323.714-1.498.714-1.498.136-.511.447-1.278.503-1.338.078-.083.243-.079.347-.105.255-.066.506-.157.749-.255A6.385 6.385 0 0 0 6.48 6.54c.183-.122.36-.252.533-.387.625-.485 1.447-1.264 1.366-2.421-.053-.758-.361-1.347-.916-1.749-.771-.559-2.001-.699-3.29-.372zm1.879 1.801c.121-.199.254-.458.51-.495.345-.05.675.289.852.549.359.528-.131 1.123-.465 1.505-.402.462-.942.768-1.502.999-.256.105-.353.169-.619.251-.2.062-.025-.465.057-.606.185-.32.975-1.887 1.167-2.203zM15.404.048a1.51 1.51 0 0 0-.55.199 3.9 3.9 0 0 0-1.02.882 9.576 9.576 0 0 0-.329.423c-.399.549-.729 1.145-1.035 1.75a45.552 45.552 0 0 0-.84 1.756c-.202.443-.399.889-.595 1.335-.035.081-.067.166-.106.245a1.2 1.2 0 0 1-.548.518 1.666 1.666 0 0 1-.596.16c-.091.009-.16-.019-.175-.115-.016-.105-.017-.21-.044-.314a.704.704 0 0 0-.27-.415c-.298-.204-.818-.279-1.21-.175-.29.077-.578.275-.823.46-.418.315-.978.805-1.272 1.345-.217.399-.377.979-.17 1.412.095.199.247.401.442.51.202.113.441.13.667.11.317-.028.595-.115.878-.257.408-.204.713-.507.998-.86.214-.264.386-.552.577-.831l.125-.181c.308.085.914-.192.914-.192l-.05.135c-.412 1.015-.048 1.474.073 1.59.13.125.366.184.544.199.925.076 1.61-.501 2.161-.965l.592-.479-.044.288c-.049.346-.109.777.054.989.165.213.523.324.914.283.507-.054.961-.386 1.339-.703l.159-.134c.337-.282.629-.526.844-.775.116-.133.319-.277.215-.473a.27.27 0 0 0-.158-.126c-.153-.048-.32.03-.453.1-.152.08-.29.186-.43.284l-.19.131-.144.111c-.164.126-.331.261-.526.336-.119.045-.287.098-.412.057-.16-.052-.116-.294-.107-.422.004-.058.007-.118.015-.176.028-.209.08-.414.127-.619.039-.176.099-.375.034-.553-.064-.176-.245-.171-.402-.158-.188.015-.33.157-.414.316l-.078.19c-.026.064-.045.134-.11.166-.337.17-.643.393-.972.576l-.355.202-.15.091a3.003 3.003 0 0 1-.452.244 1.732 1.732 0 0 1-.41.102c-.114.018-.244.038-.334-.045-.218-.197.035-.655.103-.87.046-.147.095-.3.195-.441.09-.128.197-.242.3-.352l.17-.186.499-.589c.32-.383.646-.781.968-1.184l.536-.678.121-.154c.54-.691 1.152-1.475 1.594-2.286.15-.276.288-.56.351-.87.05-.247.068-.537-.122-.73-.172-.174-.392-.215-.613-.187zm-3.041 5.114l-.032-.022-.017-.041c-.079-.236 1.481-3.153 2.189-3.683.188-.14.314-.124.393-.079a.223.223 0 0 1 .165.174.29.29 0 0 1 .006.06c0 .752-2.289 3.405-2.544 3.578-.074.05-.128.034-.16.013zM6.671 8.873c-.142-.429.405-1.078.576-1.267.784-.864 1.185-.654 1.289-.57.231.188.195.607-.085.996l-.037.051c-.423.59-.91 1.182-1.324 1.102-.278-.053-.381-.199-.419-.312zm11.041-2.285c-.199.134-.254.45-.307.757-.074.43-.171.857-.251 1.287a1.518 1.518 0 0 0-.044.428c.01.218.082.388.217.506.157.138.39.197.676.172.51-.045.981-.394 1.397-.702.157-.116.305-.226.45-.317l.033-.021c.096-.061.203-.108.306-.157.12-.057.272-.134.407-.138.075-.002.088.045.096.11.018.147.021.295.024.438.005.247.009.48.096.633.098.171.341.284.53.308.931.119 1.648-.517 2.077-.896.04-.035.096-.129.15-.139.089-.017.053.151.056.203.018.346.205.515.605.545.513.039 1.016-.046 1.418-.238.155-.074.285-.18.412-.282.112-.09.216-.175.333-.235.092-.047.091-.049.148.041.189.302.538.661 1.129.657.47-.003.907-.248 1.303-.478a2.66 2.66 0 0 0 .334-.223c.137-.11.277-.223.338-.369a.31.31 0 0 0 .006-.235.153.153 0 0 0-.096-.085c-.197-.067-.413.059-.583.147a3.307 3.307 0 0 1-.63.271c-.148.04-.343.092-.479-.004-.156-.109-.179-.356-.193-.529-.017-.215-.029-.43-.072-.641-.115-.57-.539-.908-1.135-.907-.515.001-1.019.19-1.583.593-.406.29-.801.706-1.082 1.14l-.067.104-.097-.076c-.063-.049-.156-.017-.221.008-.375.145-.646.47-1.039.587-.148.045-.424.113-.532-.046-.108-.16-.013-.414.046-.575.049-.133.095-.259.074-.433a.52.52 0 0 0-.244-.377c-.223-.148-.56-.189-.859-.104-.401.114-.787.384-1.16.646-.224.157-.451.328-.699.447a3.324 3.324 0 0 1-.302.127c-.16.057-.134-.128-.134-.224 0-.084.006-.167.016-.25.019-.151.055-.299.091-.447a3.08 3.08 0 0 0 .09-.474c.017-.202.003-.469-.15-.594-.189-.158-.676-.109-.899.041zm7.004 2.254a.208.208 0 0 1-.146-.123l-.007-.016-.001-.017c-.033-.386.302-.647.572-.858l.037-.028c.291-.228.779-.61 1.142-.534a.432.432 0 0 1 .295.23l.01.017.003.019c.046.287-.111.562-.464.819-.298.215-1.131.581-1.441.491zm0 0"/><path d="M14.972 5.184c-.21.018-.347.076-.43.182-.132.168-.114.418-.053.597.062.183.177.319.291.348a.627.627 0 0 0 .614-.168.652.652 0 0 0 .178-.607c-.057-.21-.337-.374-.6-.352zm16.109 7.022c-.204-.176-.876-.311-1.153-.381a23.965 23.965 0 0 0-1.302-.287 34.8 34.8 0 0 0-2.725-.4 69.22 69.22 0 0 0-1.507-.15c-2.306-.207-4.623-.292-6.937-.32-4.545-.055-9.15-.105-13.59.99-.831.205-1.67.428-2.48.706-.118.041-1.197.44-1.137.57.041.091.712-.085.835-.124 5.194-1.64 10.718-1.627 16.107-1.446 1.391.046 2.781.095 4.17.183 2.396.151 4.81.385 7.151.935.448.106.732.214 1.179.325.329.082.734-.128.894-.21.137-.071.648-.258.495-.391zm-4.419-7.419c0 .713.58 1.294 1.293 1.294s1.293-.581 1.293-1.294c0-.713-.58-1.294-1.293-1.294s-1.293.58-1.293 1.294zm.272 0c0-.563.457-1.021 1.02-1.021a1.021 1.021 0 0 1 0 2.043c-.562 0-1.02-.459-1.02-1.022zm.553.65V4.12h.558c.14 0 .242.012.306.035a.303.303 0 0 1 .152.127c.038.06.058.13.058.208 0 .099-.029.18-.087.245a.416.416 0 0 1-.26.122c.057.034.104.07.142.111.037.04.088.111.15.213l.161.257h-.317l-.191-.286a2.018 2.018 0 0 0-.139-.194.213.213 0 0 0-.08-.055.427.427 0 0 0-.133-.015h-.053v.549h-.267zm.266-.76h.195a.997.997 0 0 0 .237-.016.14.14 0 0 0 .074-.056.17.17 0 0 0 .027-.099.16.16 0 0 0-.035-.107.16.16 0 0 0-.1-.051 2.114 2.114 0 0 0-.193-.005h-.206v.334zM4.173 1.611a6.794 6.794 0 0 0-1.616.652 7.451 7.451 0 0 0-.828.518c-.225.169-.462.368-.567.637-.1.255-.161.736.251.7.116-.01.259-.046.364-.1.23-.118.372-.354.57-.514.208-.169.431-.311.666-.438.528-.284 1.095-.493 1.7-.513.377-.012.516.008.881.092.04.01-.591 1.055-.986 1.788-.077.14-.913 1.767-1.038 1.873-.16.134-.23.131-.425.135-.166.002-.323.005-.463.057-.122.045-.243.193-.303.369-.061.181-.049.358.034.488.07.109.204.141.417.184.07.014.224-.028.263.043.041.074-.065.21-.104.274a7.911 7.911 0 0 1-.077.139c-.253.45-.515.914-.707 1.457-.082.233-.24.793.07.98a.586.586 0 0 0 .716-.075c.357-.323.714-1.498.714-1.498.136-.511.447-1.278.503-1.338.078-.083.243-.079.347-.105.255-.066.506-.157.749-.255A6.385 6.385 0 0 0 6.48 6.54c.183-.122.36-.252.533-.387.625-.485 1.447-1.264 1.366-2.421-.053-.758-.361-1.347-.916-1.749-.771-.559-2.001-.699-3.29-.372zm1.879 1.801c.121-.199.254-.458.51-.495.345-.05.675.289.852.549.359.528-.131 1.123-.465 1.505-.402.462-.942.768-1.502.999-.256.105-.353.169-.619.251-.2.062-.025-.465.057-.606.185-.32.975-1.887 1.167-2.203zM15.404.048a1.51 1.51 0 0 0-.55.199 3.9 3.9 0 0 0-1.02.882 9.576 9.576 0 0 0-.329.423c-.399.549-.729 1.145-1.035 1.75a45.552 45.552 0 0 0-.84 1.756c-.202.443-.399.889-.595 1.335-.035.081-.067.166-.106.245a1.2 1.2 0 0 1-.548.518 1.666 1.666 0 0 1-.596.16c-.091.009-.16-.019-.175-.115-.016-.105-.017-.21-.044-.314a.704.704 0 0 0-.27-.415c-.298-.204-.818-.279-1.21-.175-.29.077-.578.275-.823.46-.418.315-.978.805-1.272 1.345-.217.399-.377.979-.17 1.412.095.199.247.401.442.51.202.113.441.13.667.11.317-.028.595-.115.878-.257.408-.204.713-.507.998-.86.214-.264.386-.552.577-.831l.125-.181c.308.085.914-.192.914-.192l-.05.135c-.412 1.015-.048 1.474.073 1.59.13.125.366.184.544.199.925.076 1.61-.501 2.161-.965l.592-.479-.044.288c-.049.346-.109.777.054.989.165.213.523.324.914.283.507-.054.961-.386 1.339-.703l.159-.134c.337-.282.629-.526.844-.775.116-.133.319-.277.215-.473a.27.27 0 0 0-.158-.126c-.153-.048-.32.03-.453.1-.152.08-.29.186-.43.284l-.19.131-.144.111c-.164.126-.331.261-.526.336-.119.045-.287.098-.412.057-.16-.052-.116-.294-.107-.422.004-.058.007-.118.015-.176.028-.209.08-.414.127-.619.039-.176.099-.375.034-.553-.064-.176-.245-.171-.402-.158-.188.015-.33.157-.414.316l-.078.19c-.026.064-.045.134-.11.166-.337.17-.643.393-.972.576l-.355.202-.15.091a3.003 3.003 0 0 1-.452.244 1.732 1.732 0 0 1-.41.102c-.114.018-.244.038-.334-.045-.218-.197.035-.655.103-.87.046-.147.095-.3.195-.441.09-.128.197-.242.3-.352l.17-.186.499-.589c.32-.383.646-.781.968-1.184l.536-.678.121-.154c.54-.691 1.152-1.475 1.594-2.286.15-.276.288-.56.351-.87.05-.247.068-.537-.122-.73-.172-.174-.392-.215-.613-.187zm-3.041 5.114l-.032-.022-.017-.041c-.079-.236 1.481-3.153 2.189-3.683.188-.14.314-.124.393-.079a.223.223 0 0 1 .165.174.29.29 0 0 1 .006.06c0 .752-2.289 3.405-2.544 3.578-.074.05-.128.034-.16.013zM6.671 8.873c-.142-.429.405-1.078.576-1.267.784-.864 1.185-.654 1.289-.57.231.188.195.607-.085.996l-.037.051c-.423.59-.91 1.182-1.324 1.102-.278-.053-.381-.199-.419-.312zm11.041-2.285c-.199.134-.254.45-.307.757-.074.43-.171.857-.251 1.287a1.518 1.518 0 0 0-.044.428c.01.218.082.388.217.506.157.138.39.197.676.172.51-.045.981-.394 1.397-.702.157-.116.305-.226.45-.317l.033-.021c.096-.061.203-.108.306-.157.12-.057.272-.134.407-.138.075-.002.088.045.096.11.018.147.021.295.024.438.005.247.009.48.096.633.098.171.341.284.53.308.931.119 1.648-.517 2.077-.896.04-.035.096-.129.15-.139.089-.017.053.151.056.203.018.346.205.515.605.545.513.039 1.016-.046 1.418-.238.155-.074.285-.18.412-.282.112-.09.216-.175.333-.235.092-.047.091-.049.148.041.189.302.538.661 1.129.657.47-.003.907-.248 1.303-.478a2.66 2.66 0 0 0 .334-.223c.137-.11.277-.223.338-.369a.31.31 0 0 0 .006-.235.153.153 0 0 0-.096-.085c-.197-.067-.413.059-.583.147a3.307 3.307 0 0 1-.63.271c-.148.04-.343.092-.479-.004-.156-.109-.179-.356-.193-.529-.017-.215-.029-.43-.072-.641-.115-.57-.539-.908-1.135-.907-.515.001-1.019.19-1.583.593-.406.29-.801.706-1.082 1.14l-.067.104-.097-.076c-.063-.049-.156-.017-.221.008-.375.145-.646.47-1.039.587-.148.045-.424.113-.532-.046-.108-.16-.013-.414.046-.575.049-.133.095-.259.074-.433a.52.52 0 0 0-.244-.377c-.223-.148-.56-.189-.859-.104-.401.114-.787.384-1.16.646-.224.157-.451.328-.699.447a3.324 3.324 0 0 1-.302.127c-.16.057-.134-.128-.134-.224 0-.084.006-.167.016-.25.019-.151.055-.299.091-.447a3.08 3.08 0 0 0 .09-.474c.017-.202.003-.469-.15-.594-.189-.158-.676-.109-.899.041zm7.004 2.254a.208.208 0 0 1-.146-.123l-.007-.016-.001-.017c-.033-.386.302-.647.572-.858l.037-.028c.291-.228.779-.61 1.142-.534a.432.432 0 0 1 .295.23l.01.017.003.019c.046.287-.111.562-.464.819-.298.215-1.131.581-1.441.491zm0 0"/></g></symbol><symbol id="place" viewBox="0 0 20 27"><path d="M9.998 1.221C4.659 1.227.333 5.555.33 10.894c0 5.195 8.917 15.261 9.295 15.684a.498.498 0 0 0 .742 0c.378-.428 9.295-10.489 9.295-15.684-.003-5.337-4.326-9.664-9.664-9.673zm0 24.268c-1.702-1.99-8.673-10.345-8.673-14.599a8.673 8.673 0 1 1 17.346 0c0 4.254-6.971 12.618-8.673 14.599z"/><path d="M10.173 6.073a5.24 5.24 0 1 0 5.245 5.24 5.25 5.25 0 0 0-5.245-5.24zm0 9.489a4.244 4.244 0 1 1 4.244-4.244 4.25 4.25 0 0 1-4.244 4.244z"/></symbol><symbol id="qustion" viewBox="0 0 15 15"><g fill-rule="evenodd" clip-rule="evenodd"><path d="M5.68 4.435c-.06.062-.096.102-.125.134.052-.058.125-.134.125-.134zm0 0"/><path d="M8.241 4.91c.19.237.285.515.285.835 0 .23-.065.45-.196.662-.072.122-.164.24-.282.351l-.393.386c-.38.374-.622.701-.734.986-.112.289-.167.666-.167 1.135h.875c0-.413.049-.725.141-.937.091-.21.298-.469.612-.773.433-.419.721-.737.862-.954.141-.216.213-.498.213-.845 0-.573-.194-1.045-.584-1.412-.386-.371-.904-.555-1.549-.555-.698 0-1.245.216-1.645.646-.4.433-.6.999-.6 1.707h.875c.013-.426.081-.75.2-.976.21-.406.586-.61 1.137-.61.443 0 .757.118.95.354zm0 0"/><path d="M14.876 7.446a7.383 7.383 0 0 0-14.764 0 7.383 7.383 0 0 0 14.764 0zm-14.091 0a6.71 6.71 0 1 1 13.42 0 6.71 6.71 0 0 1-13.42 0zm0 0"/><path d="M6.74 10.08h.98v1.02h-.98z"/></g></symbol><symbol id="search" viewBox="0 0 18 18"><path d="M17.239 15.359l-3.564-3.564a7.117 7.117 0 0 0 1.288-4.146c0-.991-.192-1.938-.577-2.842a7.322 7.322 0 0 0-1.559-2.338A7.306 7.306 0 0 0 10.489.91C9.587.526 8.639.333 7.649.333S5.711.526 4.807.91a7.295 7.295 0 0 0-2.338 1.559A7.295 7.295 0 0 0 .91 4.807a7.195 7.195 0 0 0-.577 2.842c0 .991.192 1.937.577 2.842a7.306 7.306 0 0 0 1.559 2.338 7.311 7.311 0 0 0 2.338 1.559 7.195 7.195 0 0 0 2.842.577c1.524 0 2.906-.43 4.146-1.289l3.564 3.554c.249.263.561.395.935.395.361 0 .673-.132.935-.395.264-.263.395-.575.395-.935 0-.368-.128-.68-.385-.936zm-6.302-4.422c-.911.911-2.007 1.366-3.289 1.366s-2.378-.456-3.289-1.366c-.91-.911-1.365-2.007-1.365-3.288S3.449 5.27 4.36 4.36c.911-.911 2.007-1.366 3.289-1.366s2.378.455 3.289 1.366c.911.91 1.367 2.007 1.367 3.289s-.457 2.377-1.368 3.288zm0 0"/></symbol></svg>